<svg width="88" height="88" xmlns="http://www.w3.org/2000/svg"><g transform="matrix(1 0 0 1 44 44)"  ><g style=""   ><g transform="matrix(1 0 0 1 23 5)"  ><path style="stroke: none; stroke-width: 1; stroke-dasharray: none; stroke-linecap: butt; stroke-dashoffset: 0; stroke-linejoin: miter; stroke-miterlimit: 4; fill: rgb(217,217,217); fill-rule: nonzero; opacity: 1;"  transform=" translate(-67, -49)" d="M 59 19 L 75 27.1818 L 75 70.8182 L 59 79 L 59 19 Z" stroke-linecap="round" /></g><g transform="matrix(1 0 0 1 23 5)"  ><path style="stroke: none; stroke-width: 1; stroke-dasharray: none; stroke-linecap: butt; stroke-dashoffset: 0; stroke-linejoin: miter; stroke-miterlimit: 4; fill: rgb(74,168,255); fill-rule: nonzero; opacity: 1;"  transform=" translate(-67, -49)" d="M 59 19 L 75 27.1818 L 75 70.8182 L 59 79 L 59 19 Z" stroke-linecap="round" /></g><g transform="matrix(1 0 0 1 0 -6)"  ><path style="stroke: none; stroke-width: 1; stroke-dasharray: none; stroke-linecap: butt; stroke-dashoffset: 0; stroke-linejoin: miter; stroke-miterlimit: 4; fill: rgb(217,217,217); fill-rule: nonzero; opacity: 1;"  transform=" translate(-44, -38)" d="M 36 8 L 52 16.1818 L 52 59.8182 L 36 68 L 36 8 Z" stroke-linecap="round" /></g><g transform="matrix(1 0 0 1 0 -6)"  ><path style="stroke: none; stroke-width: 1; stroke-dasharray: none; stroke-linecap: butt; stroke-dashoffset: 0; stroke-linejoin: miter; stroke-miterlimit: 4; fill: rgb(74,125,255); fill-rule: nonzero; opacity: 1;"  transform=" translate(-44, -38)" d="M 36 8 L 52 16.1818 L 52 59.8182 L 36 68 L 36 8 Z" stroke-linecap="round" /></g><g transform="matrix(1 0 0 1 23 -6.5)"  ><path style="stroke: none; stroke-width: 1; stroke-dasharray: none; stroke-linecap: butt; stroke-dashoffset: 0; stroke-linejoin: miter; stroke-miterlimit: 4; fill: rgb(40,88,255); fill-rule: evenodd; opacity: 1;"  transform=" translate(-67, -37.5)" d="M 59 19 L 59 56 L 75 47.8182 L 75 27.1818 L 59 19 Z" stroke-linecap="round" /></g><g transform="matrix(1 0 0 1 -23 5)"  ><path style="stroke: none; stroke-width: 1; stroke-dasharray: none; stroke-linecap: butt; stroke-dashoffset: 0; stroke-linejoin: miter; stroke-miterlimit: 4; fill: rgb(74,168,255); fill-rule: nonzero; opacity: 1;"  transform=" translate(-21, -49)" d="M 13 19 L 29 27.1818 L 29 70.8182 L 13 79 L 13 19 Z" stroke-linecap="round" /></g></g></g></svg>