<svg width="88" height="88" xmlns="http://www.w3.org/2000/svg"><g transform="matrix(1 0 0 1 44 44)"  ><g style=""   ><g transform="matrix(0 1 -1 0 0 0)"  ><rect style="stroke: none; stroke-width: 1; stroke-dasharray: none; stroke-linecap: butt; stroke-dashoffset: 0; stroke-linejoin: miter; stroke-miterlimit: 4; fill: rgb(40,88,255); fill-rule: nonzero; opacity: 1;"  x="-40" y="-40" rx="28" ry="28" width="80" height="80" /></g><g transform="matrix(1 0 0 1 -15 0)"  ><path style="stroke: none; stroke-width: 1; stroke-dasharray: none; stroke-linecap: butt; stroke-dashoffset: 0; stroke-linejoin: miter; stroke-miterlimit: 4; fill: rgb(4,0,204); fill-rule: evenodd; opacity: 1;"  transform=" translate(-29, -44)" d="M 18.671 80.1574 C 12.992 76.8293 8.61179 71.5696 6.39969 65.2478 C 4.82843 60.7574 4.82843 55.1716 4.82843 44 C 4.82843 32.8284 4.82843 27.2426 6.3997 22.7522 C 8.61179 16.4304 12.992 11.1707 18.671 7.84253 L 50.303 39.4745 C 51.8871 41.0586 52.6791 41.8506 52.9759 42.7639 C 53.2369 43.5673 53.2369 44.4327 52.9759 45.2361 C 52.6791 46.1494 51.8871 46.9414 50.303 48.5255 L 18.671 80.1574 Z" stroke-linecap="round" /></g><g transform="matrix(1 0 0 1 -6 0)"  ><path style="stroke: rgb(255,255,255); stroke-width: 4; stroke-dasharray: none; stroke-linecap: round; stroke-dashoffset: 0; stroke-linejoin: miter; stroke-miterlimit: 4; fill: none; fill-rule: nonzero; opacity: 1;"  transform=" translate(-38, -44)" d="M 35.5499 45.4164 L 36.9708 44 L 35.5499 42.5836 L 25.5433 32.6082 C 25.1513 32.2174 25.1513 31.5826 25.5433 31.1918 L 31.225 25.5278 C 31.6153 25.1388 32.2468 25.1388 32.637 25.5278 L 50.4567 43.2918 C 50.8487 43.6826 50.8487 44.3174 50.4567 44.7082 L 32.637 62.4722 C 32.2468 62.8612 31.6153 62.8612 31.225 62.4722 L 25.5433 56.8082 C 25.1513 56.4174 25.1513 55.7826 25.5433 55.3918 L 35.5499 45.4164 Z" stroke-linecap="round" /></g><g transform="matrix(1 0 0 1 16 0)"  ><path style="stroke: rgb(255,255,255); stroke-width: 4; stroke-dasharray: none; stroke-linecap: round; stroke-dashoffset: 0; stroke-linejoin: miter; stroke-miterlimit: 4; fill: none; fill-rule: nonzero; opacity: 1;"  transform=" translate(-60, -44)" d="M 54 32 L 66 44 L 54 56" stroke-linecap="round" /></g></g></g></svg>