<svg width="88" height="88" xmlns="http://www.w3.org/2000/svg"><g transform="matrix(1 0 0 1 44 44)"  ><g style=""   ><g transform="matrix(1 0 0 1 15.8 0.71)"  ><path style="stroke: none; stroke-width: 1; stroke-dasharray: none; stroke-linecap: butt; stroke-dashoffset: 0; stroke-linejoin: miter; stroke-miterlimit: 4; fill: rgb(249,87,56); fill-rule: nonzero; opacity: 1;"  transform=" translate(-59.8, -44.71)" d="M 59.3094 28.7996 L 54.8057 21.0002 C 54.0358 19.6669 52.1111 19.6671 51.3415 21.0006 L 43.3844 34.7882 L 37.1482 45.5878 L 43.3844 56.3874 L 47.5865 49.1141 L 49.6206 45.5878 L 53.0732 39.6059 L 70.7313 69.4219 L 80.4439 69.4219 C 82.0036 69.4219 82.9631 67.7159 82.153 66.3831 L 59.3094 28.7996 Z" stroke-linecap="round" /></g><g transform="matrix(1 0 0 1 -10.56 20.02)"  ><linearGradient id="SVGID_paint0_linear_57_296_1343" gradientUnits="userSpaceOnUse" gradientTransform="matrix(1 0 0 1 0 0)"  x1="58.7609" y1="20.6966" x2="30.5842" y2="68.9067"><stop offset="0%" style="stop-color:rgb(88,202,239);stop-opacity: 1"/><stop offset="18%" style="stop-color:rgb(78,190,232);stop-opacity: 1"/><stop offset="50%" style="stop-color:rgb(51,161,214);stop-opacity: 1"/><stop offset="92%" style="stop-color:rgb(8,113,185);stop-opacity: 1"/><stop offset="100%" style="stop-color:rgb(0,103,179);stop-opacity: 1"/></linearGradient><path style="stroke: none; stroke-width: 1; stroke-dasharray: none; stroke-linecap: butt; stroke-dashoffset: 0; stroke-linejoin: miter; stroke-miterlimit: 4; fill: url(#SVGID_paint0_linear_57_296_1343); fill-rule: nonzero; opacity: 1;"  transform=" translate(-33.44, -64.02)" d="M 42.0931 58.6223 L 31.0192 58.6223 L 24.783 69.4219 L 35.8569 69.4219 L 42.0931 58.6223 Z" stroke-linecap="round" /></g><g transform="matrix(1 0 0 1 -10.31 0.71)"  ><path style="stroke: none; stroke-width: 1; stroke-dasharray: none; stroke-linecap: butt; stroke-dashoffset: 0; stroke-linejoin: miter; stroke-miterlimit: 4; fill: rgb(255,124,99); fill-rule: nonzero; opacity: 1;"  transform=" translate(-33.69, -44.71)" d="M 31.0191 58.6223 L 24.7829 69.4219 L 59.9133 69.4219 C 61.453 69.4219 62.4152 67.7551 61.6453 66.4217 L 57.1415 58.6223 L 49.6206 45.5878 L 43.3844 34.7882 L 39.925 28.7996 L 35.421 20.9996 C 34.6511 19.6664 32.7267 19.6664 31.9569 20.9997 L 5.73208 66.4219 C 4.96227 67.7552 5.92452 69.4219 7.46413 69.4219 L 16.4724 69.4219 L 28.2021 49.1141 L 33.6889 39.6059 L 37.1482 45.5878 L 43.3844 56.3874 L 44.6691 58.6223 L 42.093 58.6223 L 31.0191 58.6223 Z" stroke-linecap="round" /></g></g></g></svg>