<svg width="88" height="88" xmlns="http://www.w3.org/2000/svg"><g transform="matrix(1 0 0 1 44 44)"  ><g style=""   ><g transform="matrix(1 0 0 1 27.04 -9.91)"  ><path style="stroke: none; stroke-width: 1; stroke-dasharray: none; stroke-linecap: butt; stroke-dashoffset: 0; stroke-linejoin: miter; stroke-miterlimit: 4; fill: rgb(242,100,25); fill-rule: evenodd; opacity: 1;"  transform=" translate(-71.04, -34.09)" d="M 61.2726 20.0458 L 61.2726 48.1437 L 80.8118 33.5617 L 61.2726 20.0458 Z" stroke-linecap="round" /></g><g transform="matrix(1 0 0 1 28.64 16.08)"  ><path style="stroke: none; stroke-width: 1; stroke-dasharray: none; stroke-linecap: butt; stroke-dashoffset: 0; stroke-linejoin: miter; stroke-miterlimit: 4; fill: rgb(47,72,88); fill-rule: evenodd; opacity: 1;"  transform=" translate(-72.64, -60.08)" d="M 84 79.8192 L 84 40.3467 L 61.2726 57.3048 L 61.2726 79.8192 L 84 79.8192 Z" stroke-linecap="round" /></g><g transform="matrix(1 0 0 1 -28.64 25.12)"  ><path style="stroke: none; stroke-width: 1; stroke-dasharray: none; stroke-linecap: butt; stroke-dashoffset: 0; stroke-linejoin: miter; stroke-miterlimit: 4; fill: rgb(85,221,224); fill-rule: evenodd; opacity: 1;"  transform=" translate(-15.36, -69.12)" d="M 26.7273 79.8192 L 26.7273 58.4251 L 3.99992 79.8192 L 26.7273 79.8192 Z" stroke-linecap="round" /></g><g transform="matrix(1 0 0 1 0 -17.16)"  ><path style="stroke: none; stroke-width: 1; stroke-dasharray: none; stroke-linecap: butt; stroke-dashoffset: 0; stroke-linejoin: miter; stroke-miterlimit: 4; fill: rgb(245,139,53); fill-rule: evenodd; opacity: 1;"  transform=" translate(-44, -26.84)" d="M 42.7667 33.2906 L 45.198 35.7481 L 55.3594 46.0024 L 55.3594 15.8176 L 43.9957 7.67732 L 32.632 15.8176 L 32.632 42.4879 L 40.2108 35.6126 L 42.7667 33.2906 Z" stroke-linecap="round" /></g><g transform="matrix(1 0 0 1 -0.14 17.91)"  ><path style="stroke: none; stroke-width: 1; stroke-dasharray: none; stroke-linecap: butt; stroke-dashoffset: 0; stroke-linejoin: miter; stroke-miterlimit: 4; fill: rgb(51,101,138); fill-rule: evenodd; opacity: 1;"  transform=" translate(-43.86, -61.91)" d="M 55.2256 56.7989 L 42.3657 43.8161 L 32.4982 52.7695 L 32.4982 80 L 55.2256 80 L 55.2256 56.7989 Z" stroke-linecap="round" /></g><g transform="matrix(1 0 0 1 -28.64 0.27)"  ><path style="stroke: none; stroke-width: 1; stroke-dasharray: none; stroke-linecap: butt; stroke-dashoffset: 0; stroke-linejoin: miter; stroke-miterlimit: 4; fill: rgb(246,174,45); fill-rule: evenodd; opacity: 1;"  transform=" translate(-15.36, -44.27)" d="M 26.7273 20.0457 L 3.99992 36.3262 L 3.99992 68.4896 L 26.7273 47.8544 L 26.7273 20.0457 Z" stroke-linecap="round" /></g></g></g></svg>