<svg width="88" height="88" xmlns="http://www.w3.org/2000/svg"><g transform="matrix(1 0 0 1 44 44)"  ><g style=""   ><g transform="matrix(1 0 0 1 21.25 -21.25)"  ><path style="stroke: none; stroke-width: 1; stroke-dasharray: none; stroke-linecap: butt; stroke-dashoffset: 0; stroke-linejoin: miter; stroke-miterlimit: 4; fill: rgb(0,187,249); fill-rule: nonzero; opacity: 1;"  transform=" translate(-65.25, -22.75)" d="M 46.5 22.75 C 46.5 12.3947 54.8947 4 65.25 4 L 65.25 4 C 75.6053 4 84 12.3947 84 22.75 L 84 22.75 C 84 33.1053 75.6053 41.5 65.25 41.5 L 46.5 41.5 L 46.5 22.75 Z" stroke-linecap="round" /></g><g transform="matrix(1 0 0 1 -17.5 -17.5)"  ><path style="stroke: none; stroke-width: 1; stroke-dasharray: none; stroke-linecap: butt; stroke-dashoffset: 0; stroke-linejoin: miter; stroke-miterlimit: 4; fill: rgb(241,91,181); fill-rule: nonzero; opacity: 1;"  transform=" translate(-26.5, -26.5)" d="M 41.5 26.5 C 41.5 18.2157 34.7843 11.5 26.5 11.5 L 26.5 11.5 C 18.2157 11.5 11.5 18.2157 11.5 26.5 L 11.5 26.5 C 11.5 34.7843 18.2157 41.5 26.5 41.5 L 41.5 41.5 L 41.5 26.5 Z" stroke-linecap="round" /></g><g transform="matrix(1 0 0 1 -21.25 21.25)"  ><path style="stroke: none; stroke-width: 1; stroke-dasharray: none; stroke-linecap: butt; stroke-dashoffset: 0; stroke-linejoin: miter; stroke-miterlimit: 4; fill: rgb(11,232,202); fill-rule: nonzero; opacity: 1;"  transform=" translate(-22.75, -65.25)" d="M 41.5 65.25 C 41.5 75.6053 33.1053 84 22.75 84 L 22.75 84 C 12.3947 84 4 75.6053 4 65.25 L 4 65.25 C 4 54.8947 12.3947 46.5 22.75 46.5 L 41.5 46.5 L 41.5 65.25 Z" stroke-linecap="round" /></g><g transform="matrix(1 0 0 1 17.5 17.5)"  ><path style="stroke: none; stroke-width: 1; stroke-dasharray: none; stroke-linecap: butt; stroke-dashoffset: 0; stroke-linejoin: miter; stroke-miterlimit: 4; fill: rgb(254,228,64); fill-rule: nonzero; opacity: 1;"  transform=" translate(-61.5, -61.5)" d="M 46.5 61.5 C 46.5 69.7843 53.2157 76.5 61.5 76.5 L 61.5 76.5 C 69.7843 76.5 76.5 69.7843 76.5 61.5 L 76.5 61.5 C 76.5 53.2157 69.7843 46.5 61.5 46.5 L 46.5 46.5 L 46.5 61.5 Z" stroke-linecap="round" /></g></g></g></svg>