<svg width="88" height="88" xmlns="http://www.w3.org/2000/svg"><g transform="matrix(1 0 0 1 44 44)"  ><path style="stroke: none; stroke-width: 1; stroke-dasharray: none; stroke-linecap: butt; stroke-dashoffset: 0; stroke-linejoin: miter; stroke-miterlimit: 4; fill: rgb(255,63,127); fill-rule: evenodd; opacity: 1;"  transform=" translate(-44, -44)" d="M 44 88 C 68.3005 88 88 68.3005 88 44 C 88 19.6995 68.3005 0 44 0 C 19.6995 0 0 19.6995 0 44 C 0 68.3005 19.6995 88 44 88 Z M 44.0908 62.2576 C 25.463 77.8242 10.3639 62.7251 25.9304 44.0972 C 10.3639 25.4694 25.463 10.3702 44.0908 25.9368 C 62.715 10.3702 77.8179 25.4694 62.2513 44.0972 C 77.8179 62.7108 62.715 77.8242 44.0908 62.2576 Z M 53.2033 44.0972 C 53.2033 49.13 49.1236 53.2097 44.0908 53.2097 C 39.0582 53.2097 34.9784 49.13 34.9784 44.0972 C 34.9784 39.0645 39.0582 34.9847 44.0908 34.9847 C 49.1236 34.9847 53.2033 39.0645 53.2033 44.0972 Z" stroke-linecap="round" /></g></svg>