<svg width="512" height="512" xmlns="http://www.w3.org/2000/svg"><g transform="matrix(1 0 0 1 256 256)"  ><g style=""   ><g transform="matrix(1 0 0 1 -138.29 -20.08)" clip-path="url(#CLIPPATH_842)"  ><clipPath id="CLIPPATH_842" ><rect transform="matrix(1 0 0 1 27.58 15.17)" id="clip1_962_202" clip-path="url(#undefined)" x="-52.8325" y="-39.6243" rx="0" ry="0" width="105.665" height="79.2486" /></clipPath><path style="stroke: none; stroke-width: 1; stroke-dasharray: none; stroke-linecap: butt; stroke-dashoffset: 0; stroke-linejoin: miter; stroke-miterlimit: 4; fill: rgb(19,215,233); fill-rule: nonzero; opacity: 1;"  transform=" translate(-117.71, -235.92)" d="M 122.745 215.359 C 121.293 221.648 118.09 227.404 113.503 231.967 C 108.915 236.53 103.129 239.716 96.8069 241.161 C 95.7044 241.397 94.7159 242.001 94.004 242.871 C 93.2922 243.741 92.8995 244.827 92.8906 245.949 L 92.8906 255.475 C 92.8907 256.19 93.0482 256.897 93.3521 257.545 C 93.656 258.193 94.0988 258.767 94.6495 259.226 C 95.2002 259.686 95.8454 260.02 96.5398 260.205 C 97.2341 260.39 97.9607 260.421 98.6686 260.297 C 110.089 258.233 120.532 252.55 128.437 244.096 C 136.342 235.641 141.285 224.87 142.528 213.39 C 142.554 213.148 142.528 212.902 142.453 212.67 C 142.377 212.438 142.254 212.225 142.09 212.043 C 141.927 211.862 141.727 211.716 141.503 211.616 C 141.279 211.516 141.037 211.464 140.792 211.463 L 127.559 211.463 C 126.431 211.472 125.34 211.863 124.465 212.571 C 123.59 213.279 122.983 214.262 122.745 215.359 Z" stroke-linecap="round" /></g><g transform="matrix(1 0 0 1 -83.49 9.51)" clip-path="url(#CLIPPATH_843)"  ><clipPath id="CLIPPATH_843" ><rect transform="matrix(1 0 0 1 -27.21 -14.42)" id="clip1_962_202" clip-path="url(#undefined)" x="-52.8325" y="-39.6243" rx="0" ry="0" width="105.665" height="79.2486" /></clipPath><path style="stroke: none; stroke-width: 1; stroke-dasharray: none; stroke-linecap: butt; stroke-dashoffset: 0; stroke-linejoin: miter; stroke-miterlimit: 4; fill: rgb(19,215,233); fill-rule: nonzero; opacity: 1;"  transform=" translate(-172.51, -265.51)" d="M 147.694 288.042 C 147.667 288.284 147.692 288.529 147.766 288.761 C 147.84 288.993 147.963 289.207 148.126 289.389 C 148.289 289.571 148.489 289.716 148.712 289.816 C 148.935 289.916 149.177 289.968 149.422 289.969 L 162.655 289.969 C 163.784 289.96 164.876 289.568 165.751 288.858 C 166.626 288.149 167.232 287.164 167.469 286.065 C 168.922 279.775 172.126 274.019 176.715 269.456 C 181.304 264.893 187.091 261.707 193.415 260.264 C 194.518 260.028 195.508 259.425 196.22 258.555 C 196.932 257.684 197.324 256.598 197.332 255.475 L 197.332 245.949 C 197.331 245.234 197.174 244.527 196.87 243.879 C 196.566 243.231 196.123 242.657 195.573 242.198 C 195.022 241.738 194.377 241.404 193.682 241.219 C 192.988 241.034 192.261 241.003 191.554 241.127 C 183.962 242.482 176.757 245.462 170.437 249.861 C 165.207 253.487 160.665 258.006 157.02 263.208 C 151.85 270.569 148.642 279.113 147.694 288.042 Z" stroke-linecap="round" /></g><g transform="matrix(1 0 0 1 -83.5 -20.09)" clip-path="url(#CLIPPATH_844)"  ><clipPath id="CLIPPATH_844" ><rect transform="matrix(1 0 0 1 -27.21 15.17)" id="clip1_962_202" clip-path="url(#undefined)" x="-52.8325" y="-39.6243" rx="0" ry="0" width="105.665" height="79.2486" /></clipPath><path style="stroke: none; stroke-width: 1; stroke-dasharray: none; stroke-linecap: butt; stroke-dashoffset: 0; stroke-linejoin: miter; stroke-miterlimit: 4; fill: rgb(182,244,249); fill-rule: nonzero; opacity: 1;"  transform=" translate(-172.5, -235.91)" d="M 162.663 211.463 L 149.422 211.463 C 149.177 211.464 148.935 211.516 148.712 211.616 C 148.489 211.716 148.289 211.862 148.126 212.043 C 147.963 212.225 147.84 212.439 147.766 212.671 C 147.692 212.903 147.667 213.148 147.694 213.39 C 148.635 222.317 151.841 230.859 157.011 238.216 C 160.657 243.417 165.2 247.936 170.429 251.563 C 176.752 255.953 183.956 258.93 191.545 260.289 C 192.253 260.413 192.98 260.381 193.674 260.196 C 194.368 260.011 195.014 259.677 195.564 259.218 C 196.115 258.758 196.558 258.184 196.862 257.536 C 197.166 256.888 197.323 256.182 197.323 255.467 L 197.323 245.949 C 197.314 244.827 196.922 243.741 196.21 242.871 C 195.498 242.001 194.509 241.397 193.407 241.161 C 187.084 239.716 181.298 236.53 176.711 231.967 C 172.124 227.404 168.921 221.648 167.469 215.359 C 167.229 214.264 166.624 213.283 165.751 212.575 C 164.878 211.867 163.79 211.475 162.663 211.463 Z" stroke-linecap="round" /></g><g transform="matrix(1 0 0 1 -138.28 9.5)" clip-path="url(#CLIPPATH_845)"  ><clipPath id="CLIPPATH_845" ><rect transform="matrix(1 0 0 1 27.57 -14.42)" id="clip1_962_202" clip-path="url(#undefined)" x="-52.8325" y="-39.6243" rx="0" ry="0" width="105.665" height="79.2486" /></clipPath><path style="stroke: none; stroke-width: 1; stroke-dasharray: none; stroke-linecap: butt; stroke-dashoffset: 0; stroke-linejoin: miter; stroke-miterlimit: 4; fill: rgb(182,244,249); fill-rule: nonzero; opacity: 1;"  transform=" translate(-117.72, -265.5)" d="M 133.211 263.2 C 129.566 257.997 125.024 253.479 119.794 249.853 C 113.474 245.454 106.269 242.473 98.6774 241.119 C 97.9696 240.995 97.2429 241.026 96.5485 241.211 C 95.8542 241.396 95.209 241.73 94.6583 242.19 C 94.1076 242.649 93.6647 243.223 93.3609 243.871 C 93.057 244.519 92.8995 245.225 92.8994 245.94 L 92.8994 255.467 C 92.9068 256.589 93.2989 257.676 94.011 258.546 C 94.7231 259.417 95.7125 260.02 96.8157 260.255 C 103.14 261.697 108.927 264.883 113.515 269.446 C 118.102 274.009 121.304 279.766 122.754 286.057 C 122.993 287.155 123.601 288.14 124.477 288.849 C 125.354 289.559 126.446 289.951 127.576 289.961 L 140.809 289.961 C 141.054 289.96 141.296 289.908 141.519 289.808 C 141.742 289.708 141.942 289.562 142.105 289.381 C 142.268 289.199 142.391 288.985 142.465 288.753 C 142.539 288.521 142.564 288.276 142.537 288.034 C 141.589 279.105 138.381 270.56 133.211 263.2 Z" stroke-linecap="round" /></g><g transform="matrix(1 0 0 1 67.68 -6.79)" clip-path="url(#CLIPPATH_846)"  ><clipPath id="CLIPPATH_846" ><rect transform="matrix(1 0 0 1 -67.28 1.87)" id="clip0_962_202" x="-185.3995" y="-61.0875" rx="0" ry="0" width="370.799" height="122.175" /></clipPath><path style="stroke: none; stroke-width: 1; stroke-dasharray: none; stroke-linecap: butt; stroke-dashoffset: 0; stroke-linejoin: miter; stroke-miterlimit: 4; fill: rgb(29,33,40); fill-rule: nonzero; opacity: 1;"  transform=" translate(-323.68, -249.21)" d="M 238.223 224.048 L 238.223 227.202 L 229.11 227.202 L 229.11 236.914 L 238.223 236.914 L 239.016 232.948 L 241.589 232.948 L 241.589 240.087 L 221.564 240.087 L 221.564 237.708 L 224.931 236.914 L 224.931 215.516 L 221.564 214.722 L 221.564 212.556 L 229.11 212.343 L 241.183 212.343 L 241.183 219.095 L 238.61 219.095 L 237.623 215.516 L 229.11 215.516 L 229.11 224.048 L 238.223 224.048 Z M 270.717 228.788 C 270.717 232.671 269.898 235.592 268.26 237.553 C 266.622 239.501 263.81 240.474 259.824 240.474 C 256.045 240.474 253.349 239.571 251.737 237.766 C 250.124 235.96 249.318 233.167 249.318 229.388 L 249.318 215.516 L 245.952 214.722 L 245.952 212.556 L 257.251 212.343 L 257.251 214.722 L 253.478 215.516 L 253.478 229.388 C 253.478 231.374 253.704 232.922 254.155 234.032 C 254.607 235.141 255.303 235.934 256.245 236.411 C 257.199 236.876 258.457 237.108 260.018 237.108 C 261.682 237.108 262.978 236.843 263.907 236.315 C 264.848 235.786 265.525 234.922 265.938 233.722 C 266.351 232.522 266.557 230.878 266.557 228.788 L 266.557 215.516 L 262.784 214.722 L 262.784 212.556 L 274.083 212.343 L 274.083 214.722 L 270.717 215.516 L 270.717 228.788 Z M 290.741 237.708 L 294.707 236.914 L 294.707 215.516 L 289.561 215.516 L 288.574 219.482 L 285.982 219.482 L 285.982 212.343 L 307.593 212.343 L 307.593 219.482 L 305.02 219.482 L 304.014 215.516 L 298.867 215.516 L 298.867 236.914 L 302.834 237.708 L 302.834 240.087 L 290.741 240.087 L 290.741 237.708 Z M 334.747 228.788 C 334.747 232.671 333.928 235.592 332.29 237.553 C 330.652 239.501 327.84 240.474 323.855 240.474 C 320.075 240.474 317.379 239.571 315.767 237.766 C 314.155 235.96 313.349 233.167 313.349 229.388 L 313.349 215.516 L 309.982 214.722 L 309.982 212.556 L 321.281 212.343 L 321.281 214.722 L 317.508 215.516 L 317.508 229.388 C 317.508 231.374 317.734 232.922 318.186 234.032 C 318.637 235.141 319.334 235.934 320.275 236.411 C 321.23 236.876 322.487 237.108 324.048 237.108 C 325.712 237.108 327.008 236.843 327.937 236.315 C 328.879 235.786 329.556 234.922 329.968 233.722 C 330.381 232.522 330.588 230.878 330.588 228.788 L 330.588 215.516 L 326.815 214.722 L 326.815 212.556 L 338.114 212.343 L 338.114 214.722 L 334.747 215.516 L 334.747 228.788 Z M 345.05 215.516 L 341.683 214.722 L 341.683 212.556 L 349.209 212.343 L 353.563 212.343 C 356.362 212.343 358.548 212.981 360.122 214.258 C 361.695 215.522 362.482 217.263 362.482 219.482 C 362.482 223.364 360.767 225.938 357.336 227.202 C 357.968 227.756 358.761 228.95 359.715 230.781 L 362.85 237.069 L 365.655 237.708 L 365.655 240.087 L 359.715 240.087 L 356.349 232.755 C 355.717 231.387 355.162 230.381 354.685 229.736 C 354.208 229.079 353.698 228.627 353.156 228.382 C 352.615 228.124 351.892 227.995 350.989 227.995 L 349.209 227.995 L 349.209 236.914 L 352.576 237.708 L 352.576 240.087 L 341.683 240.087 L 341.683 237.708 L 345.05 236.914 L 345.05 215.516 Z M 352.189 225.035 C 354.111 225.035 355.614 224.603 356.697 223.739 C 357.781 222.861 358.322 221.643 358.322 220.082 C 358.322 218.766 357.858 217.676 356.929 216.812 C 356.013 215.948 354.827 215.516 353.369 215.516 L 349.209 215.516 L 349.209 225.035 L 352.189 225.035 Z M 371.217 215.516 L 367.851 214.722 L 367.851 212.556 L 375.377 212.343 L 379.537 212.343 C 382.465 212.343 384.715 213.071 386.289 214.529 C 387.863 215.987 388.65 217.966 388.65 220.469 C 388.65 223.513 387.714 225.828 385.844 227.415 C 383.987 229.001 381.355 229.794 377.95 229.794 L 375.377 229.794 L 375.377 236.914 L 378.743 237.708 L 378.743 240.087 L 367.851 240.087 L 367.851 237.708 L 371.217 236.914 L 371.217 215.516 Z M 377.95 226.621 C 380.117 226.621 381.749 226.144 382.845 225.19 C 383.942 224.235 384.49 222.861 384.49 221.069 C 384.49 219.43 384.038 218.095 383.135 217.064 C 382.245 216.032 380.981 215.516 379.343 215.516 L 375.377 215.516 L 375.377 226.621 L 377.95 226.621 Z M 391.812 237.708 L 395.179 236.914 L 395.179 215.516 L 391.812 214.722 L 391.812 212.556 L 402.705 212.343 L 402.705 214.722 L 399.339 215.516 L 399.339 236.914 L 402.705 237.708 L 402.705 240.087 L 391.812 240.087 L 391.812 237.708 Z M 411.634 236.121 C 411.737 236.173 411.976 236.282 412.35 236.45 C 412.724 236.605 413.233 236.753 413.878 236.895 C 414.523 237.037 415.226 237.108 415.987 237.108 C 417.574 237.108 418.98 236.734 420.205 235.986 C 421.443 235.238 422.062 234.199 422.062 232.871 C 422.062 232.019 421.798 231.31 421.269 230.742 C 420.74 230.162 420.082 229.691 419.296 229.33 C 418.522 228.969 417.451 228.537 416.084 228.034 C 414.291 227.402 412.84 226.808 411.731 226.254 C 410.634 225.699 409.693 224.899 408.906 223.855 C 408.132 222.81 407.745 221.468 407.745 219.83 C 407.745 217.212 408.635 215.245 410.415 213.929 C 412.208 212.614 414.452 211.956 417.148 211.956 C 418.257 211.956 419.431 212.078 420.669 212.323 C 421.908 212.556 422.965 212.801 423.842 213.059 C 424.719 213.304 425.274 213.465 425.506 213.542 L 425.313 220.275 L 422.74 220.275 L 421.385 216.038 C 421.282 216.012 421.031 215.941 420.631 215.825 C 420.231 215.696 419.715 215.58 419.083 215.477 C 418.451 215.374 417.819 215.322 417.187 215.322 C 415.497 215.322 414.194 215.703 413.278 216.464 C 412.363 217.212 411.905 218.115 411.905 219.172 C 411.905 220.024 412.169 220.74 412.698 221.32 C 413.227 221.888 413.885 222.358 414.672 222.732 C 415.471 223.107 416.587 223.545 418.019 224.048 C 419.734 224.654 421.14 225.228 422.237 225.77 C 423.333 226.312 424.262 227.079 425.023 228.072 C 425.797 229.053 426.183 230.297 426.183 231.807 C 426.183 233.703 425.719 235.309 424.79 236.624 C 423.862 237.927 422.611 238.894 421.037 239.526 C 419.476 240.158 417.741 240.474 415.832 240.474 C 414.594 240.474 413.375 240.358 412.176 240.126 C 410.976 239.894 409.976 239.655 409.177 239.41 C 408.39 239.152 407.887 238.985 407.668 238.907 L 407.668 231.961 L 410.841 231.961 L 411.634 236.121 Z M 245.749 263.102 L 244.549 266.082 L 238.416 278.561 L 235.243 278.755 L 229.11 265.888 L 228.104 263.102 L 228.104 282.914 L 231.877 283.708 L 231.877 286.087 L 221.177 286.087 L 221.177 283.708 L 224.544 282.914 L 224.544 261.516 L 221.177 260.722 L 221.177 258.556 L 230.097 258.343 L 237.255 274.208 L 244.743 258.556 L 253.082 258.343 L 253.082 260.722 L 249.696 261.516 L 249.696 282.914 L 253.082 283.708 L 253.082 286.087 L 241.976 286.087 L 241.976 283.708 L 245.749 282.914 L 245.749 263.102 Z M 270.291 257.956 C 272.832 257.956 275.025 258.517 276.87 259.639 C 278.727 260.761 280.139 262.367 281.107 264.457 C 282.087 266.546 282.577 269.003 282.577 271.828 C 282.577 274.704 282.029 277.252 280.933 279.47 C 279.836 281.689 278.295 283.411 276.308 284.636 C 274.335 285.862 272.071 286.474 269.517 286.474 C 265.635 286.474 262.649 285.268 260.559 282.856 C 258.47 280.444 257.425 276.962 257.425 272.409 C 257.425 269.532 257.947 266.998 258.992 264.805 C 260.037 262.612 261.527 260.922 263.462 259.736 C 265.409 258.549 267.686 257.956 270.291 257.956 Z M 270.098 261.322 C 267.454 261.322 265.435 262.212 264.042 263.992 C 262.662 265.772 261.972 268.513 261.972 272.215 C 261.972 275.814 262.617 278.529 263.907 280.36 C 265.209 282.192 267.144 283.108 269.711 283.108 C 272.355 283.108 274.4 282.179 275.844 280.322 C 277.302 278.464 278.03 275.698 278.03 272.022 C 278.03 268.487 277.353 265.824 275.999 264.031 C 274.657 262.225 272.69 261.322 270.098 261.322 Z M 303.192 278.368 L 305.959 278.368 L 305.959 286.087 L 286.746 286.087 L 286.746 283.708 L 290.113 282.914 L 290.113 261.516 L 286.746 260.722 L 286.746 258.556 L 297.639 258.343 L 297.639 260.722 L 294.273 261.516 L 294.273 282.914 L 302.399 282.914 L 303.192 278.368 Z M 325.393 270.048 L 325.393 273.202 L 316.28 273.202 L 316.28 282.914 L 325.393 282.914 L 326.186 278.948 L 328.76 278.948 L 328.76 286.087 L 308.735 286.087 L 308.735 283.708 L 312.101 282.914 L 312.101 261.516 L 308.735 260.722 L 308.735 258.556 L 316.28 258.343 L 328.353 258.343 L 328.353 265.095 L 325.78 265.095 L 324.793 261.516 L 316.28 261.516 L 316.28 270.048 L 325.393 270.048 Z M 338.269 282.121 C 338.372 282.173 338.61 282.282 338.985 282.45 C 339.359 282.605 339.868 282.753 340.513 282.895 C 341.158 283.037 341.861 283.108 342.622 283.108 C 344.208 283.108 345.614 282.734 346.84 281.986 C 348.078 281.238 348.697 280.199 348.697 278.871 C 348.697 278.019 348.433 277.31 347.904 276.742 C 347.375 276.162 346.717 275.691 345.93 275.33 C 345.156 274.969 344.086 274.537 342.719 274.034 C 340.926 273.402 339.475 272.808 338.365 272.254 C 337.269 271.699 336.327 270.899 335.541 269.855 C 334.767 268.81 334.38 267.468 334.38 265.83 C 334.38 263.212 335.27 261.245 337.05 259.929 C 338.843 258.614 341.087 257.956 343.783 257.956 C 344.892 257.956 346.066 258.078 347.304 258.323 C 348.542 258.556 349.6 258.801 350.477 259.059 C 351.354 259.304 351.909 259.465 352.141 259.542 L 351.948 266.275 L 349.374 266.275 L 348.02 262.038 C 347.917 262.012 347.665 261.941 347.265 261.825 C 346.866 261.696 346.35 261.58 345.718 261.477 C 345.086 261.374 344.453 261.322 343.821 261.322 C 342.132 261.322 340.829 261.703 339.913 262.464 C 338.997 263.212 338.54 264.115 338.54 265.172 C 338.54 266.024 338.804 266.74 339.333 267.32 C 339.862 267.888 340.519 268.358 341.306 268.732 C 342.106 269.107 343.222 269.545 344.653 270.048 C 346.369 270.654 347.775 271.228 348.871 271.77 C 349.968 272.312 350.896 273.079 351.657 274.072 C 352.431 275.053 352.818 276.297 352.818 277.807 C 352.818 279.703 352.354 281.309 351.425 282.624 C 350.496 283.927 349.245 284.894 347.672 285.526 C 346.111 286.158 344.376 286.474 342.467 286.474 C 341.229 286.474 340.01 286.358 338.81 286.126 C 337.611 285.894 336.611 285.655 335.811 285.41 C 335.025 285.152 334.522 284.985 334.302 284.907 L 334.302 277.961 L 337.475 277.961 L 338.269 282.121 Z M 360.721 283.708 L 364.688 282.914 L 364.688 261.516 L 359.541 261.516 L 358.554 265.482 L 355.962 265.482 L 355.962 258.343 L 377.573 258.343 L 377.573 265.482 L 375 265.482 L 373.994 261.516 L 368.847 261.516 L 368.847 282.914 L 372.814 283.708 L 372.814 286.087 L 360.721 286.087 L 360.721 283.708 Z M 380.156 283.708 L 383.522 282.914 L 383.522 261.516 L 380.156 260.722 L 380.156 258.556 L 391.049 258.343 L 391.049 260.722 L 387.682 261.516 L 387.682 282.914 L 391.049 283.708 L 391.049 286.087 L 380.156 286.087 L 380.156 283.708 Z M 411.876 270.048 L 411.876 273.202 L 402.763 273.202 L 402.763 282.914 L 411.876 282.914 L 412.669 278.948 L 415.243 278.948 L 415.243 286.087 L 395.218 286.087 L 395.218 283.708 L 398.584 282.914 L 398.584 261.516 L 395.218 260.722 L 395.218 258.556 L 402.763 258.343 L 414.836 258.343 L 414.836 265.095 L 412.263 265.095 L 411.276 261.516 L 402.763 261.516 L 402.763 270.048 L 411.876 270.048 Z" stroke-linecap="round" /></g></g></g></svg>