<svg width="512" height="512" xmlns="http://www.w3.org/2000/svg"><g transform="matrix(1 0 0 1 256 256)"  ><g style=""   ><g transform="matrix(1 0 0 1 -163.72 22.44)" clip-path="url(#CLIPPATH_830)"  ><clipPath id="CLIPPATH_830" ><rect transform="matrix(1 0 0 1 163.97 -22.77)" id="clip0_962_203" x="-205.2445" y="-52.664" rx="0" ry="0" width="410.489" height="105.328" /></clipPath><path style="stroke: none; stroke-width: 1; stroke-dasharray: none; stroke-linecap: butt; stroke-dashoffset: 0; stroke-linejoin: miter; stroke-miterlimit: 4; fill: rgb(255,217,190); fill-rule: nonzero; opacity: 1;"  transform=" translate(-92.28, -278.44)" d="M 109.356 272.737 C 106.213 275.881 106.215 280.982 109.358 284.127 C 112.5 287.272 112.503 292.373 109.359 295.517 C 106.214 298.662 101.115 298.662 97.9703 295.516 L 75.1973 272.737 C 72.0532 269.592 72.0545 264.494 75.2002 261.35 C 78.3437 258.209 83.4392 258.211 86.5827 261.352 C 89.7278 264.495 94.8276 264.494 97.9727 261.352 C 101.116 258.211 106.211 258.209 109.355 261.35 C 112.5 264.493 112.501 269.593 109.356 272.737 Z" stroke-linecap="round" /></g><g transform="matrix(1 0 0 1 -118.18 22.44)" clip-path="url(#CLIPPATH_831)"  ><clipPath id="CLIPPATH_831" ><rect transform="matrix(1 0 0 1 118.42 -22.77)" id="clip0_962_203" x="-205.2445" y="-52.664" rx="0" ry="0" width="410.489" height="105.328" /></clipPath><path style="stroke: none; stroke-width: 1; stroke-dasharray: none; stroke-linecap: butt; stroke-dashoffset: 0; stroke-linejoin: miter; stroke-miterlimit: 4; fill: rgb(255,131,43); fill-rule: nonzero; opacity: 1;"  transform=" translate(-137.82, -278.44)" d="M 154.901 261.349 C 158.048 264.493 158.049 269.593 154.904 272.738 L 132.132 295.516 C 128.988 298.662 123.888 298.662 120.743 295.517 C 117.599 292.373 117.602 287.272 120.745 284.127 C 123.887 280.982 123.889 275.88 120.746 272.737 C 117.602 269.593 117.602 264.494 120.747 261.351 C 123.89 258.21 128.985 258.212 132.128 261.354 C 135.27 264.496 140.37 264.493 143.514 261.353 C 146.659 258.213 151.758 258.208 154.901 261.349 Z" stroke-linecap="round" /></g><g transform="matrix(1 0 0 1 -118.18 -23.11)" clip-path="url(#CLIPPATH_832)"  ><clipPath id="CLIPPATH_832" ><rect transform="matrix(1 0 0 1 118.42 22.77)" id="clip0_962_203" x="-205.2445" y="-52.664" rx="0" ry="0" width="410.489" height="105.328" /></clipPath><path style="stroke: none; stroke-width: 1; stroke-dasharray: none; stroke-linecap: butt; stroke-dashoffset: 0; stroke-linejoin: miter; stroke-miterlimit: 4; fill: rgb(255,217,190); fill-rule: nonzero; opacity: 1;"  transform=" translate(-137.82, -232.89)" d="M 154.904 238.583 C 158.049 241.728 158.049 246.827 154.904 249.972 C 151.76 253.116 146.658 253.113 143.513 249.97 C 140.369 246.828 135.27 246.826 132.128 249.97 C 128.986 253.114 123.888 253.114 120.745 249.971 C 117.601 246.827 117.6 241.728 120.744 238.585 C 123.889 235.44 123.889 230.342 120.745 227.197 C 117.6 224.053 117.6 218.955 120.745 215.81 C 123.889 212.666 128.987 212.666 132.132 215.81 L 154.904 238.583 Z" stroke-linecap="round" /></g><g transform="matrix(1 0 0 1 -163.72 -23.11)" clip-path="url(#CLIPPATH_833)"  ><clipPath id="CLIPPATH_833" ><rect transform="matrix(1 0 0 1 163.97 22.77)" id="clip0_962_203" x="-205.2445" y="-52.664" rx="0" ry="0" width="410.489" height="105.328" /></clipPath><path style="stroke: none; stroke-width: 1; stroke-dasharray: none; stroke-linecap: butt; stroke-dashoffset: 0; stroke-linejoin: miter; stroke-miterlimit: 4; fill: rgb(255,131,43); fill-rule: nonzero; opacity: 1;"  transform=" translate(-92.28, -232.89)" d="M 109.358 227.197 C 106.214 230.342 106.214 235.44 109.358 238.584 C 112.502 241.728 112.502 246.826 109.358 249.971 C 106.214 253.115 101.115 253.115 97.971 249.971 C 94.8266 246.826 89.7286 246.826 86.5842 249.971 C 83.4398 253.115 78.3417 253.115 75.1973 249.971 C 72.0529 246.826 72.0529 241.728 75.1973 238.584 L 97.971 215.81 C 101.115 212.666 106.214 212.666 109.358 215.81 C 112.502 218.955 112.502 224.053 109.358 227.197 Z" stroke-linecap="round" /></g><g transform="matrix(1 0 0 1 57.52 1.16)" clip-path="url(#CLIPPATH_834)"  ><clipPath id="CLIPPATH_834" ><rect transform="matrix(1 0 0 1 -57.28 -1.5)" id="clip0_962_203" x="-205.2445" y="-52.664" rx="0" ry="0" width="410.489" height="105.328" /></clipPath><path style="stroke: none; stroke-width: 1; stroke-dasharray: none; stroke-linecap: butt; stroke-dashoffset: 0; stroke-linejoin: miter; stroke-miterlimit: 4; fill: rgb(222,225,230); fill-rule: nonzero; opacity: 1;"  transform=" translate(-313.52, -257.16)" d="M 194.531 276.234 C 191.381 276.234 187.623 275.93 183.258 275.323 L 183.258 270.711 C 187.661 271.66 191.533 272.134 194.873 272.134 C 197.682 272.134 199.731 271.831 201.022 271.223 C 202.312 270.578 202.958 269.401 202.958 267.693 L 202.958 262.911 C 202.958 261.317 202.502 260.197 201.591 259.552 C 200.68 258.907 199.086 258.584 196.809 258.584 L 192.482 258.584 C 188.876 258.584 186.314 257.863 184.795 256.42 C 183.277 254.978 182.518 252.739 182.518 249.702 L 182.518 246.742 C 182.518 244.73 182.955 243.098 183.828 241.845 C 184.739 240.593 186.238 239.663 188.325 239.055 C 190.451 238.448 193.355 238.145 197.036 238.145 C 199.504 238.145 202.673 238.353 206.544 238.771 L 206.544 242.927 C 202.217 242.282 198.915 241.959 196.638 241.959 C 193.108 241.959 190.774 242.301 189.635 242.984 C 188.458 243.705 187.87 244.901 187.87 246.571 L 187.87 250.784 C 187.87 252.074 188.325 253.023 189.236 253.631 C 190.185 254.2 191.798 254.485 194.076 254.485 L 198.517 254.485 C 201.06 254.485 203.033 254.788 204.438 255.396 C 205.88 256.003 206.886 256.933 207.455 258.185 C 208.063 259.4 208.366 261.051 208.366 263.139 L 208.366 265.815 C 208.366 268.434 207.873 270.502 206.886 272.02 C 205.937 273.539 204.457 274.62 202.445 275.266 C 200.433 275.911 197.795 276.234 194.531 276.234 Z M 231.33 276.234 C 221.006 276.234 215.844 272.893 215.844 266.213 L 215.844 248.734 C 215.844 241.674 221.006 238.145 231.33 238.145 C 241.768 238.145 246.987 241.655 246.987 248.677 L 246.987 266.213 C 246.987 269.781 245.545 272.343 242.66 273.899 C 239.775 275.455 235.999 276.234 231.33 276.234 Z M 231.444 272.533 C 238.238 272.533 241.635 270.407 241.635 266.156 L 241.635 248.564 C 241.635 244.009 238.219 241.731 231.387 241.731 C 228.085 241.731 225.542 242.244 223.758 243.269 C 222.012 244.293 221.139 246.058 221.139 248.564 L 221.139 266.156 C 221.139 270.407 224.574 272.533 231.444 272.533 Z M 270.484 276.234 C 260.122 276.234 254.941 272.893 254.941 266.213 L 254.941 248.677 C 254.941 241.618 260.122 238.088 270.484 238.088 C 274.014 238.088 277.392 238.448 280.619 239.169 L 280.619 243.269 C 276.975 242.358 273.635 241.902 270.598 241.902 C 269.118 241.902 267.827 241.997 266.727 242.187 C 265.626 242.339 264.563 242.623 263.538 243.041 C 261.337 243.99 260.236 245.85 260.236 248.62 L 260.236 265.928 C 260.236 270.18 263.766 272.305 270.826 272.305 C 273.862 272.305 277.203 271.85 280.846 270.939 L 280.846 275.152 C 277.62 275.873 274.166 276.234 270.484 276.234 Z M 288.786 238.714 L 294.309 238.714 L 294.309 275.664 L 288.786 275.664 L 288.786 238.714 Z M 318.884 276.234 C 308.56 276.234 303.398 272.893 303.398 266.213 L 303.398 248.734 C 303.398 241.674 308.56 238.145 318.884 238.145 C 329.322 238.145 334.541 241.655 334.541 248.677 L 334.541 266.213 C 334.541 269.781 333.099 272.343 330.214 273.899 C 327.329 275.455 323.553 276.234 318.884 276.234 Z M 318.998 272.533 C 325.792 272.533 329.189 270.407 329.189 266.156 L 329.189 248.564 C 329.189 244.009 325.773 241.731 318.941 241.731 C 315.639 241.731 313.096 242.244 311.312 243.269 C 309.566 244.293 308.693 246.058 308.693 248.564 L 308.693 266.156 C 308.693 270.407 312.128 272.533 318.998 272.533 Z M 354.281 276.234 C 351.131 276.234 347.373 275.93 343.008 275.323 L 343.008 270.711 C 347.411 271.66 351.282 272.134 354.623 272.134 C 357.431 272.134 359.481 271.831 360.771 271.223 C 362.062 270.578 362.707 269.401 362.707 267.693 L 362.707 262.911 C 362.707 261.317 362.252 260.197 361.341 259.552 C 360.43 258.907 358.836 258.584 356.558 258.584 L 352.231 258.584 C 348.625 258.584 346.063 257.863 344.545 256.42 C 343.027 254.978 342.268 252.739 342.268 249.702 L 342.268 246.742 C 342.268 244.73 342.704 243.098 343.577 241.845 C 344.488 240.593 345.987 239.663 348.075 239.055 C 350.201 238.448 353.104 238.145 356.786 238.145 C 359.253 238.145 362.423 238.353 366.294 238.771 L 366.294 242.927 C 361.967 242.282 358.665 241.959 356.387 241.959 C 352.858 241.959 350.523 242.301 349.385 242.984 C 348.208 243.705 347.62 244.901 347.62 246.571 L 347.62 250.784 C 347.62 252.074 348.075 253.023 348.986 253.631 C 349.935 254.2 351.548 254.485 353.825 254.485 L 358.266 254.485 C 360.809 254.485 362.783 254.788 364.187 255.396 C 365.63 256.003 366.636 256.933 367.205 258.185 C 367.812 259.4 368.116 261.051 368.116 263.139 L 368.116 265.815 C 368.116 268.434 367.623 270.502 366.636 272.02 C 365.687 273.539 364.206 274.62 362.195 275.266 C 360.183 275.911 357.545 276.234 354.281 276.234 Z M 391.023 275.664 C 380.661 275.664 375.48 272.324 375.48 265.644 L 375.48 248.734 C 375.48 241.674 380.661 238.145 391.023 238.145 C 401.423 238.145 406.623 241.655 406.623 248.677 L 406.623 263.936 C 406.623 267.428 404.934 270.293 401.556 272.533 L 410.665 272.533 L 410.665 275.664 L 391.023 275.664 Z M 391.137 271.964 C 397.931 271.964 401.328 269.838 401.328 265.587 L 401.328 248.564 C 401.328 244.009 397.912 241.731 391.08 241.731 C 389.561 241.731 388.252 241.826 387.151 242.016 C 386.05 242.168 385.007 242.472 384.02 242.927 C 381.856 243.952 380.775 245.831 380.775 248.564 L 380.775 265.587 C 380.775 269.838 384.229 271.964 391.137 271.964 Z M 430.067 276.234 C 428.055 276.234 426.291 276.101 424.772 275.835 C 423.292 275.569 421.831 275.114 420.388 274.469 C 418.87 273.785 417.693 272.742 416.858 271.337 C 416.061 269.933 415.663 268.225 415.663 266.213 L 415.663 238.714 L 420.958 238.714 L 420.958 266.156 C 420.958 268.472 421.736 270.123 423.292 271.11 C 424.848 272.058 427.145 272.533 430.181 272.533 C 433.218 272.533 435.476 272.058 436.956 271.11 C 438.474 270.123 439.234 268.472 439.234 266.156 L 439.234 238.714 L 444.528 238.714 L 444.528 266.213 C 444.528 272.893 439.708 276.234 430.067 276.234 Z" stroke-linecap="round" /></g></g></g></svg>