<svg width="2094.4" height="2104.4" xmlns="http://www.w3.org/2000/svg"><g transform="matrix(1 0 0 1 1047.2 1052.2)"  ><g style=""   ><g transform="matrix(1 0 0 1 -68.3 -233.7)" id="Graphic"  ><rect style="stroke: rgb(0,0,0); stroke-width: 5; stroke-dasharray: none; stroke-linecap: butt; stroke-dashoffset: 0; stroke-linejoin: miter; stroke-miterlimit: 10; fill: rgb(255,255,255); fill-rule: nonzero; opacity: 1;"  x="-522.2" y="-693.7" rx="0" ry="0" width="1044.4" height="1387.4" /></g><g transform="matrix(1 0 0 1 -68.25 -837.2)" id="Graphic"  ><line style="stroke: rgb(0,0,0); stroke-width: 5; stroke-dasharray: none; stroke-linecap: butt; stroke-dashoffset: 0; stroke-linejoin: miter; stroke-miterlimit: 10; fill: none; fill-rule: nonzero; opacity: 1;"  x1="-522.25" y1="0" x2="522.25" y2="0" /></g><g transform="matrix(1 0 0 1 -537.5 -883.4)" id="Graphic"  ><circle style="stroke: none; stroke-width: 1; stroke-dasharray: none; stroke-linecap: butt; stroke-dashoffset: 0; stroke-linejoin: miter; stroke-miterlimit: 4; fill: rgb(0,0,0); fill-rule: nonzero; opacity: 1;"  cx="0" cy="0" r="14" /></g><g transform="matrix(1 0 0 1 -488.1 -883.4)" id="Graphic"  ><circle style="stroke: none; stroke-width: 1; stroke-dasharray: none; stroke-linecap: butt; stroke-dashoffset: 0; stroke-linejoin: miter; stroke-miterlimit: 4; fill: rgb(0,0,0); fill-rule: nonzero; opacity: 1;"  cx="0" cy="0" r="14" /></g><g transform="matrix(1 0 0 1 -438.7 -883.4)" id="Graphic"  ><circle style="stroke: none; stroke-width: 1; stroke-dasharray: none; stroke-linecap: butt; stroke-dashoffset: 0; stroke-linejoin: miter; stroke-miterlimit: 4; fill: rgb(0,0,0); fill-rule: nonzero; opacity: 1;"  cx="0" cy="0" r="14" /></g><g transform="matrix(1 0 0 1 178.45 -233.65)" id="Graphic"  ><rect style="stroke: rgb(0,0,0); stroke-width: 5; stroke-dasharray: none; stroke-linecap: butt; stroke-dashoffset: 0; stroke-linejoin: miter; stroke-miterlimit: 10; fill: rgb(255,198,10); fill-rule: nonzero; opacity: 1;"  x="-123.35" y="-123.35" rx="0" ry="0" width="246.7" height="246.7" /></g><g transform="matrix(1 0 0 1 178.4 -233.7)" id="Graphic"  ><line style="stroke: rgb(0,0,0); stroke-width: 5; stroke-dasharray: none; stroke-linecap: butt; stroke-dashoffset: 0; stroke-linejoin: miter; stroke-miterlimit: 10; fill: none; fill-rule: nonzero; opacity: 1;"  x1="123.30000000000007" y1="-123.29999999999995" x2="-123.30000000000007" y2="123.29999999999995" /></g><g transform="matrix(1 0 0 1 178.4 -233.7)" id="Graphic"  ><line style="stroke: rgb(0,0,0); stroke-width: 5; stroke-dasharray: none; stroke-linecap: butt; stroke-dashoffset: 0; stroke-linejoin: miter; stroke-miterlimit: 10; fill: none; fill-rule: nonzero; opacity: 1;"  x1="-123.30000000000007" y1="-123.29999999999995" x2="123.30000000000007" y2="123.29999999999995" /></g><g transform="matrix(1 0 0 1 -375.75 21.65)" id="Graphic"  ><rect style="stroke: rgb(0,0,0); stroke-width: 5; stroke-dasharray: none; stroke-linecap: butt; stroke-dashoffset: 0; stroke-linejoin: miter; stroke-miterlimit: 10; fill: none; fill-rule: nonzero; opacity: 1;"  x="-123.35" y="-123.35" rx="0" ry="0" width="246.7" height="246.7" /></g><g transform="matrix(1 0 0 1 -375.8 21.65)" id="Graphic"  ><line style="stroke: rgb(0,0,0); stroke-width: 5; stroke-dasharray: none; stroke-linecap: butt; stroke-dashoffset: 0; stroke-linejoin: miter; stroke-miterlimit: 10; fill: none; fill-rule: nonzero; opacity: 1;"  x1="123.30000000000001" y1="-123.35000000000002" x2="-123.30000000000001" y2="123.35000000000002" /></g><g transform="matrix(1 0 0 1 -375.8 21.65)" id="Graphic"  ><line style="stroke: rgb(0,0,0); stroke-width: 5; stroke-dasharray: none; stroke-linecap: butt; stroke-dashoffset: 0; stroke-linejoin: miter; stroke-miterlimit: 10; fill: none; fill-rule: nonzero; opacity: 1;"  x1="-123.30000000000001" y1="-123.35000000000002" x2="123.30000000000001" y2="123.35000000000002" /></g><g transform="matrix(1 0 0 1 -127.4 -669.35)" id="Graphic"  ><path style="stroke: none; stroke-width: 1; stroke-dasharray: none; stroke-linecap: butt; stroke-dashoffset: 0; stroke-linejoin: miter; stroke-miterlimit: 4; fill: rgb(243,133,152); fill-rule: nonzero; opacity: 1;"  transform=" translate(-919.8, -382.85)" d="M 1248.8 417.4 L 590.8 417.4 C 581 417.4 573 409.4 573 399.59999999999997 L 573 366.09999999999997 C 573 356.29999999999995 581 348.29999999999995 590.8 348.29999999999995 L 1248.8 348.29999999999995 C 1258.6 348.29999999999995 1266.6 356.29999999999995 1266.6 366.09999999999997 L 1266.6 399.59999999999997 C 1266.6 409.5 1258.6 417.4 1248.8 417.4 z" stroke-linecap="round" /></g><g transform="matrix(1 0 0 1 -180.8 -318.9)" id="Graphic"  ><line style="stroke: rgb(0,0,0); stroke-width: 5; stroke-dasharray: none; stroke-linecap: butt; stroke-dashoffset: 0; stroke-linejoin: miter; stroke-miterlimit: 10; fill: none; fill-rule: nonzero; opacity: 1;"  x1="-131.8" y1="0" x2="131.8" y2="0" /></g><g transform="matrix(1 0 0 1 -180.8 -263.8)" id="Graphic"  ><line style="stroke: rgb(0,0,0); stroke-width: 5; stroke-dasharray: none; stroke-linecap: butt; stroke-dashoffset: 0; stroke-linejoin: miter; stroke-miterlimit: 10; fill: none; fill-rule: nonzero; opacity: 1;"  x1="-131.8" y1="0" x2="131.8" y2="0" /></g><g transform="matrix(1 0 0 1 -180.8 -208.8)" id="Graphic"  ><line style="stroke: rgb(0,0,0); stroke-width: 5; stroke-dasharray: none; stroke-linecap: butt; stroke-dashoffset: 0; stroke-linejoin: miter; stroke-miterlimit: 10; fill: none; fill-rule: nonzero; opacity: 1;"  x1="-131.8" y1="0" x2="131.8" y2="0" /></g><g transform="matrix(1 0 0 1 -180.8 -153.7)" id="Graphic"  ><line style="stroke: rgb(0,0,0); stroke-width: 5; stroke-dasharray: none; stroke-linecap: butt; stroke-dashoffset: 0; stroke-linejoin: miter; stroke-miterlimit: 10; fill: none; fill-rule: nonzero; opacity: 1;"  x1="-131.8" y1="0" x2="131.8" y2="0" /></g><g transform="matrix(1 0 0 1 73.9 -508.35)" id="Graphic"  ><rect style="stroke: rgb(0,0,0); stroke-width: 5; stroke-dasharray: none; stroke-linecap: butt; stroke-dashoffset: 0; stroke-linejoin: miter; stroke-miterlimit: 10; fill: none; fill-rule: nonzero; opacity: 1;"  x="-221.6" y="-71.75" rx="0" ry="0" width="443.2" height="143.5" /></g><g transform="matrix(1 0 0 1 66.85 62.05)" id="Graphic"  ><rect style="stroke: none; stroke-width: 1; stroke-dasharray: none; stroke-linecap: butt; stroke-dashoffset: 0; stroke-linejoin: miter; stroke-miterlimit: 4; fill: rgb(0,171,147); fill-rule: nonzero; opacity: 1;"  x="-276.95" y="-84.85" rx="0" ry="0" width="553.9" height="169.7" /></g><g transform="matrix(1 0 0 1 701.64 773.45)" id="Graphic"  ><path style="stroke: none; stroke-width: 1; stroke-dasharray: none; stroke-linecap: butt; stroke-dashoffset: 0; stroke-linejoin: miter; stroke-miterlimit: 4; fill: rgb(0,0,0); fill-rule: nonzero; opacity: 1;"  transform=" translate(-1748.84, -1825.65)" d="M 1804.1 1751.7 L 1842.6 1785 L 1681.6 1899.6 C 1681.6 1899.6 1643.8999999999999 1891.3 1658.3999999999999 1866 C 1672.8999999999999 1840.7 1723.9999999999998 1791.9 1723.9999999999998 1791.9 L 1804.1 1751.7 z" stroke-linecap="round" /></g><g transform="matrix(1 0 0 1 708 702.1)" id="Graphic"  ><path style="stroke: none; stroke-width: 1; stroke-dasharray: none; stroke-linecap: butt; stroke-dashoffset: 0; stroke-linejoin: miter; stroke-miterlimit: 4; fill: rgb(255,255,255); fill-rule: nonzero; opacity: 1;"  transform=" translate(-1755.2, -1754.3)" d="M 1737.2 1790.2 C 1731.7 1790.2 1727.5 1789.7 1725.6000000000001 1789.5 L 1709 1763 L 1781.3 1718.4 L 1801.3999999999999 1751.9 C 1788.5 1785.2 1755.7 1790.2 1737.2 1790.2 C 1737.1 1790.2 1737.2 1790.2 1737.2 1790.2 z" stroke-linecap="round" /></g><g transform="matrix(1 0 0 1 707.7 701.7)" id="Graphic"  ><path style="stroke: none; stroke-width: 1; stroke-dasharray: none; stroke-linecap: butt; stroke-dashoffset: 0; stroke-linejoin: miter; stroke-miterlimit: 4; fill: rgb(0,0,0); fill-rule: nonzero; opacity: 1;"  transform=" translate(-1754.9, -1753.9)" d="M 1780.4 1721.9 L 1798.5 1752.2 C 1785.9 1783.1000000000001 1754.8 1787.8 1737.1 1787.8 C 1732.6999999999998 1787.8 1729.1 1787.5 1727 1787.3 L 1712.5 1763.8999999999999 L 1780.4 1721.9 M 1782.1 1715 L 1705.6 1762.3 L 1724.1 1791.8999999999999 C 1724.1 1791.8999999999999 1729.3 1792.8 1737.1999999999998 1792.8 C 1756.2999999999997 1792.8 1791.1 1787.6 1804.1999999999998 1751.7 L 1782.1 1715 L 1782.1 1715 z" stroke-linecap="round" /></g><g transform="matrix(1 0 0 1 601.25 389.75)" id="Graphic"  ><polygon style="stroke: none; stroke-width: 1; stroke-dasharray: none; stroke-linecap: butt; stroke-dashoffset: 0; stroke-linejoin: miter; stroke-miterlimit: 4; fill: rgb(101,158,212); fill-rule: nonzero; opacity: 1;"  points="-159.75,-341.05 -79.95,18.55 53.05,341.05 159.75,292.55 90.25,9.65 75.85,-275.55 " /></g><g transform="matrix(1 0 0 1 338.41 778.64)" id="Graphic"  ><path style="stroke: none; stroke-width: 1; stroke-dasharray: none; stroke-linecap: butt; stroke-dashoffset: 0; stroke-linejoin: miter; stroke-miterlimit: 4; fill: rgb(0,0,0); fill-rule: nonzero; opacity: 1;"  transform=" translate(-1385.61, -1830.84)" d="M 1483.1 1819.8 L 1486.6 1870.6 L 1291.8999999999999 1837 C 1291.8999999999999 1837 1271.3 1804.4 1299.3999999999999 1796.9 C 1327.4999999999998 1789.4 1398.1999999999998 1791.3000000000002 1398.1999999999998 1791.3000000000002 L 1483.1 1819.8 z" stroke-linecap="round" /></g><g transform="matrix(1 0 0 1 398.6 739.55)" id="Graphic"  ><path style="stroke: none; stroke-width: 1; stroke-dasharray: none; stroke-linecap: butt; stroke-dashoffset: 0; stroke-linejoin: miter; stroke-miterlimit: 4; fill: rgb(255,255,255); fill-rule: nonzero; opacity: 1;"  transform=" translate(-1445.8, -1791.75)" d="M 1458 1823.1 C 1427.2 1823.1 1404.9 1796 1400.9 1790.8 L 1408.1000000000001 1760.3999999999999 L 1490.7 1780.3 L 1481.1000000000001 1818.2 C 1473.4 1821.4 1465.7 1823.1 1458 1823.1 C 1458 1823.1 1458 1823.1 1458 1823.1 z" stroke-linecap="round" /></g><g transform="matrix(1 0 0 1 398.75 739.25)" id="Graphic"  ><path style="stroke: none; stroke-width: 1; stroke-dasharray: none; stroke-linecap: butt; stroke-dashoffset: 0; stroke-linejoin: miter; stroke-miterlimit: 4; fill: rgb(0,0,0); fill-rule: nonzero; opacity: 1;"  transform=" translate(-1445.95, -1791.45)" d="M 1409.9 1763.4 L 1487.6000000000001 1782.1000000000001 L 1478.9 1816.3000000000002 C 1472 1819.2000000000003 1465 1820.6000000000001 1458 1820.6000000000001 C 1429.9 1820.6000000000001 1408.9 1796.8000000000002 1403.6 1790.2 L 1409.9 1763.4 M 1406.2 1757.3 L 1398.2 1791.3 C 1398.2 1791.3 1422.4 1825.6 1458 1825.6 C 1465.9 1825.6 1474.3 1823.8999999999999 1483.1 1819.8999999999999 L 1493.6999999999998 1778.3999999999999 L 1406.2 1757.3 L 1406.2 1757.3 z" stroke-linecap="round" /></g><g transform="matrix(1 0 0 1 498.65 399.45)" id="Graphic"  ><path style="stroke: rgb(35,31,32); stroke-width: 5; stroke-dasharray: none; stroke-linecap: butt; stroke-dashoffset: 0; stroke-linejoin: miter; stroke-miterlimit: 10; fill: rgb(101,158,212); fill-rule: nonzero; opacity: 1;"  transform=" translate(-1545.85, -1451.65)" d="M 1700.9 1196.2 L 1711.9 1150.6000000000001 L 1488.7 1100.9 L 1379.8 1765.5 L 1528.3 1802.4 L 1641.2 1395.4 C 1700.6 1286.1 1700.9 1196.2 1700.9 1196.2 z" stroke-linecap="round" /></g><g transform="matrix(1 0 0 1 295.47 -202.89)" id="Graphic"  ><path style="stroke: rgb(0,0,0); stroke-width: 5; stroke-dasharray: none; stroke-linecap: butt; stroke-dashoffset: 0; stroke-linejoin: miter; stroke-miterlimit: 10; fill: rgb(255,255,255); fill-rule: nonzero; opacity: 1;"  transform=" translate(-1342.67, -849.31)" d="M 1240.1 783.8 L 1276.3 763.4 C 1285.1 758.5 1296 759.5 1303.7 765.9 L 1451.4 889.3 L 1390 938.3 L 1319.7 857.8 C 1310.5 858.8 1296.4 839.1999999999999 1296.4 839.1999999999999 L 1292.6000000000001 842.6999999999999 C 1284.9 845.9 1277.9 837.3 1272.7 829.1999999999999 C 1267.5 821.0999999999999 1273.1000000000001 815.3 1273.1000000000001 815.3 C 1263.1000000000001 809.1999999999999 1271.1000000000001 800 1271.1000000000001 800 C 1265.4 797.4 1266.7 791.9 1266.7 791.9 L 1251.7 798.6999999999999 C 1247.7 800.4999999999999 1243.1000000000001 800.9 1238.9 799.4 C 1237.3000000000002 798.8 1235.9 798.1 1235 797 C 1234 795.7 1233.8 794.1 1234 792.4 C 1234.5 788.8 1236.8 785.6 1240.1 783.8 z" stroke-linecap="round" /></g><g transform="matrix(1 0 0 1 224.9 -263.85)" id="Graphic"  ><line style="stroke: rgb(0,0,0); stroke-width: 5; stroke-dasharray: none; stroke-linecap: butt; stroke-dashoffset: 0; stroke-linejoin: miter; stroke-miterlimit: 10; fill: none; fill-rule: nonzero; opacity: 1;"  x1="-5.5" y1="3.6499999999999773" x2="5.5" y2="-3.6499999999999773" /></g><g transform="matrix(1 0 0 1 230.9 -255.8)" id="Graphic"  ><line style="stroke: rgb(0,0,0); stroke-width: 5; stroke-dasharray: none; stroke-linecap: butt; stroke-dashoffset: 0; stroke-linejoin: miter; stroke-miterlimit: 10; fill: none; fill-rule: nonzero; opacity: 1;"  x1="-7.100000000000023" y1="3.6999999999999886" x2="7.100000000000023" y2="-3.6999999999999886" /></g><g transform="matrix(1 0 0 1 233.35 -239.43)" id="Graphic"  ><path style="stroke: rgb(0,0,0); stroke-width: 5; stroke-dasharray: none; stroke-linecap: butt; stroke-dashoffset: 0; stroke-linejoin: miter; stroke-miterlimit: 10; fill: none; fill-rule: nonzero; opacity: 1;"  transform=" translate(-1280.55, -812.77)" d="M 1273 815.5 C 1273 815.5 1283.8 808.9 1288.1 810.2" stroke-linecap="round" /></g><g transform="matrix(1 0 0 1 541.69 -384.4)" id="Graphic"  ><path style="stroke: rgb(0,0,0); stroke-width: 5; stroke-dasharray: none; stroke-linecap: butt; stroke-dashoffset: 0; stroke-linejoin: miter; stroke-miterlimit: 10; fill: rgb(255,255,255); fill-rule: nonzero; opacity: 1;"  transform=" translate(-1588.89, -667.8)" d="M 1638.1 588.5 C 1677.8 611.3 1634.1999999999998 691.7 1634.1999999999998 691.7 L 1644.7999999999997 757.6 L 1572.3999999999996 747.3000000000001 L 1572.3999999999996 713.6 C 1572.3999999999996 713.6 1566.2999999999997 713.2 1538.7999999999997 712.9 C 1511.1999999999998 712.6 1530.6999999999998 661.6999999999999 1530.6999999999998 661.6999999999999 C 1530.6999999999998 661.6999999999999 1523.4999999999998 655.0999999999999 1522.9999999999998 647.3 C 1522.5999999999997 639.5999999999999 1538.2999999999997 640.3 1540.8999999999999 614.5999999999999 C 1541.8 605.9999999999999 1544.6999999999998 598.9999999999999 1548.1999999999998 593.5999999999999 C 1554.6 583.5999999999999 1565.8999999999999 577.8 1577.6999999999998 577.9999999999999 C 1594.8 578.3 1623.7 580.2 1638.1 588.5 z" stroke-linecap="round" /></g><g transform="matrix(1 0 0 1 550.19 -423.9)" id="Graphic"  ><path style="stroke: none; stroke-width: 1; stroke-dasharray: none; stroke-linecap: butt; stroke-dashoffset: 0; stroke-linejoin: miter; stroke-miterlimit: 4; fill: rgb(0,0,0); fill-rule: nonzero; opacity: 1;"  transform=" translate(-1597.39, -628.3)" d="M 1638.1 588.5 C 1623.6 580.2 1594.6999999999998 578.3 1577.6999999999998 578 C 1575.7999999999997 578 1573.8999999999999 578.1 1572.1 578.3 L 1572.1 578.3 C 1572.1 578.3 1564.3999999999999 565.3 1559.6999999999998 565 C 1554.9999999999998 564.7 1556.1999999999998 572.8 1556.1999999999998 572.8 C 1556.1999999999998 572.8 1549.1999999999998 566.5999999999999 1541.7999999999997 568.5999999999999 C 1534.3999999999996 570.5999999999999 1551.3999999999996 589.3 1551.3999999999996 589.3 L 1572.3999999999996 599.3 L 1581.1999999999996 624.0999999999999 L 1596.3999999999996 626.3 L 1601.9999999999995 639.8 C 1601.9999999999995 639.8 1616.9999999999995 627.5999999999999 1624.1999999999996 638.3 C 1631.3999999999996 649 1612.8999999999996 660.1999999999999 1605.9999999999995 662.3 L 1634.2999999999995 691.5999999999999 C 1634.3 691.7 1677.9 611.3 1638.1 588.5 z" stroke-linecap="round" /></g><g transform="matrix(0.14 -0.99 0.99 0.14 502.68 -424.4)" id="Graphic"  ><ellipse style="stroke: none; stroke-width: 1; stroke-dasharray: none; stroke-linecap: butt; stroke-dashoffset: 0; stroke-linejoin: miter; stroke-miterlimit: 4; fill: rgb(0,0,0); fill-rule: nonzero; opacity: 1;"  cx="0" cy="0" rx="3" ry="2" /></g><g transform="matrix(1 0 0 1 507 -435.05)" id="Graphic"  ><path style="stroke: rgb(0,0,0); stroke-width: 8; stroke-dasharray: none; stroke-linecap: round; stroke-dashoffset: 0; stroke-linejoin: miter; stroke-miterlimit: 10; fill: none; fill-rule: nonzero; opacity: 1;"  transform=" translate(-1554.2, -617.15)" d="M 1549.7 615.5 C 1549.7 615.5 1555.5 616.1 1558.7 618.8" stroke-linecap="round" /></g><g transform="matrix(1 0 0 1 491.6 -376.2)" id="Graphic"  ><path style="stroke: rgb(0,0,0); stroke-width: 5; stroke-dasharray: none; stroke-linecap: butt; stroke-dashoffset: 0; stroke-linejoin: miter; stroke-miterlimit: 10; fill: none; fill-rule: nonzero; opacity: 1;"  transform=" translate(-1538.8, -676)" d="M 1526.9 673.7 C 1526.9 673.7 1539.6000000000001 683.1 1550.7 675" stroke-linecap="round" /></g><g transform="matrix(1 0 0 1 511.8 -92.5)" id="Graphic"  ><path style="stroke: none; stroke-width: 1; stroke-dasharray: none; stroke-linecap: butt; stroke-dashoffset: 0; stroke-linejoin: miter; stroke-miterlimit: 4; fill: rgb(238,53,53); fill-rule: nonzero; opacity: 1;"  transform=" translate(-1559, -959.7)" d="M 1462.1 878.7 L 1419 860.1 L 1353.5 917.1 L 1454.9 1004.5 L 1434.2 1174.1 L 1764.5 1186.1 L 1692.2 812.5999999999999 C 1688.1000000000001 775.8999999999999 1659.7 746.5999999999999 1623.2 741.3999999999999 L 1565.9 733.2999999999998 L 1554.5 750.2999999999998 L 1554.5 750.2999999999998 C 1546.5 749.1999999999998 1538.6 752.8999999999999 1534.4 759.7999999999998 L 1462.1 878.7 z" stroke-linecap="round" /></g><g transform="matrix(1 0 0 1 474.65 -73.71)" id="Graphic"  ><path style="stroke: rgb(0,0,0); stroke-width: 5; stroke-dasharray: none; stroke-linecap: butt; stroke-dashoffset: 0; stroke-linejoin: miter; stroke-miterlimit: 10; fill: none; fill-rule: nonzero; opacity: 1;"  transform=" translate(-1521.85, -978.49)" d="M 1588.7 927.6 L 1516.9 1021.5 C 1510.7 1029.7 1499.2 1031.8 1490.5 1026.4 L 1455 1004.5000000000001" stroke-linecap="round" /></g><g transform="matrix(1 0 0 1 246.95 -217.65)" id="Graphic"  ><line style="stroke: rgb(0,0,0); stroke-width: 3; stroke-dasharray: none; stroke-linecap: butt; stroke-dashoffset: 0; stroke-linejoin: miter; stroke-miterlimit: 10; fill: none; fill-rule: nonzero; opacity: 1;"  x1="-2.25" y1="-4.75" x2="2.25" y2="4.75" /></g><g transform="matrix(1 0 0 1 -705.48 -398.26)" id="Graphic"  ><path style="stroke: none; stroke-width: 1; stroke-dasharray: none; stroke-linecap: butt; stroke-dashoffset: 0; stroke-linejoin: miter; stroke-miterlimit: 4; fill: rgb(255,198,10); fill-rule: nonzero; opacity: 1;"  transform=" translate(-341.72, -653.94)" d="M 456.7 462.6 C 456.7 462.6 342.1 450.5 245.5 556.3000000000001 C 148.89999999999998 662.1000000000001 456.7 845.7 456.7 845.7 L 456.7 462.6 z" stroke-linecap="round" /></g><g transform="matrix(1 0 0 1 -711.03 -621.63)" id="Graphic"  ><path style="stroke: rgb(0,0,0); stroke-width: 5; stroke-dasharray: none; stroke-linecap: butt; stroke-dashoffset: 0; stroke-linejoin: miter; stroke-miterlimit: 10; fill: rgb(255,255,255); fill-rule: nonzero; opacity: 1;"  transform=" translate(-336.17, -430.57)" d="M 285.3 407.3 L 273.7 373.2 C 273.7 373.2 256.59999999999997 338.5 296.7 321 C 336.9 303.5 357.7 330.1 357.7 330.1 L 400 415.8 C 406.1 427.40000000000003 403.1 441.7 392.9 449.7 L 383.09999999999997 457.4 L 395.7 494.59999999999997 L 395.7 494.59999999999997 C 395.7 494.59999999999997 395.7 494.7 395.7 494.7 C 402.59999999999997 515.1 391.8 537.2 371.59999999999997 544.1 C 351.4 550.9 329.4 539.9 322.49999999999994 519.5 C 322.49999999999994 519.5 322.49999999999994 519.4 322.49999999999994 519.4 L 322.3999999999999 519.4 L 297.19999999999993 444.9 C 297.19999999999993 444.9 279.29999999999995 448.79999999999995 270.99999999999994 428.7 C 262.8 408.6 285.3 407.3 285.3 407.3 z" stroke-linecap="round" /></g><g transform="matrix(1 0 0 1 -687.66 -670.1)" id="Graphic"  ><path style="stroke: rgb(0,0,0); stroke-width: 5; stroke-dasharray: none; stroke-linecap: round; stroke-dashoffset: 0; stroke-linejoin: miter; stroke-miterlimit: 10; fill: none; fill-rule: nonzero; opacity: 1;"  transform=" translate(-359.54, -382.1)" d="M 352.3 365.9 C 352.3 365.9 369.90000000000003 385.09999999999997 366.3 390.2 C 362.7 395.3 359.5 398.3 359.5 398.3" stroke-linecap="round" /></g><g transform="matrix(0.95 -0.32 0.32 0.95 -712.11 -674.11)" id="Graphic"  ><ellipse style="stroke: none; stroke-width: 1; stroke-dasharray: none; stroke-linecap: butt; stroke-dashoffset: 0; stroke-linejoin: miter; stroke-miterlimit: 4; fill: rgb(0,0,0); fill-rule: nonzero; opacity: 1;"  cx="0" cy="0" rx="3.8" ry="3.8" /></g><g transform="matrix(0.95 -0.32 0.32 0.95 -681.32 -690.92)" id="Graphic"  ><ellipse style="stroke: none; stroke-width: 1; stroke-dasharray: none; stroke-linecap: butt; stroke-dashoffset: 0; stroke-linejoin: miter; stroke-miterlimit: 4; fill: rgb(0,0,0); fill-rule: nonzero; opacity: 1;"  cx="0" cy="0" rx="3.8" ry="3.8" /></g><g transform="matrix(1 0 0 1 -728.65 -692.75)" id="Graphic"  ><line style="stroke: rgb(0,0,0); stroke-width: 8; stroke-dasharray: none; stroke-linecap: round; stroke-dashoffset: 0; stroke-linejoin: miter; stroke-miterlimit: 10; fill: none; fill-rule: nonzero; opacity: 1;"  x1="8.050000000000011" y1="-6.349999999999994" x2="-8.050000000000011" y2="6.349999999999994" /></g><g transform="matrix(1 0 0 1 -687.7 -710.9)" id="Graphic"  ><line style="stroke: rgb(0,0,0); stroke-width: 8; stroke-dasharray: none; stroke-linecap: round; stroke-dashoffset: 0; stroke-linejoin: miter; stroke-miterlimit: 10; fill: none; fill-rule: nonzero; opacity: 1;"  x1="4.300000000000011" y1="-0.5999999999999943" x2="-4.300000000000011" y2="0.5999999999999943" /></g><g transform="matrix(1 0 0 1 -687.75 -637.11)" id="Graphic"  ><path style="stroke: rgb(0,0,0); stroke-width: 5; stroke-dasharray: none; stroke-linecap: round; stroke-dashoffset: 0; stroke-linejoin: miter; stroke-miterlimit: 10; fill: none; fill-rule: nonzero; opacity: 1;"  transform=" translate(-359.45, -415.09)" d="M 371.6 412.8 C 371.6 412.8 356.8 422.1 347.3 414.2" stroke-linecap="round" /></g><g transform="matrix(1 0 0 1 -672.5 -589.65)" id="Graphic"  ><line style="stroke: rgb(0,0,0); stroke-width: 3; stroke-dasharray: none; stroke-linecap: round; stroke-dashoffset: 0; stroke-linejoin: miter; stroke-miterlimit: 10; fill: rgb(255,255,255); fill-rule: nonzero; opacity: 1;"  x1="10.300000000000011" y1="-6.949999999999989" x2="-10.300000000000011" y2="6.949999999999989" /></g><g transform="matrix(1 0 0 1 -714.4 -674.1)" id="Graphic"  ><circle style="stroke: rgb(251,169,45); stroke-width: 3; stroke-dasharray: none; stroke-linecap: butt; stroke-dashoffset: 0; stroke-linejoin: miter; stroke-miterlimit: 10; fill: none; fill-rule: nonzero; opacity: 1;"  cx="0" cy="0" r="17.8" /></g><g transform="matrix(1 0 0 1 -672.5 -693.1)" id="Graphic"  ><circle style="stroke: rgb(251,169,45); stroke-width: 3; stroke-dasharray: none; stroke-linecap: butt; stroke-dashoffset: 0; stroke-linejoin: miter; stroke-miterlimit: 10; fill: none; fill-rule: nonzero; opacity: 1;"  cx="0" cy="0" r="17.8" /></g><g transform="matrix(1 0 0 1 -736.78 -695.2)" id="Graphic"  ><path style="stroke: none; stroke-width: 1; stroke-dasharray: none; stroke-linecap: butt; stroke-dashoffset: 0; stroke-linejoin: miter; stroke-miterlimit: 4; fill: rgb(0,0,0); fill-rule: nonzero; opacity: 1;"  transform=" translate(-310.42, -357)" d="M 301.9 343.4 C 301.9 343.4 320.29999999999995 376.5 285.29999999999995 407.29999999999995 C 285.29999999999995 407.29999999999995 242.29999999999995 359.9 276.09999999999997 324.09999999999997 C 309.9 288.29999999999995 350.69999999999993 316.7 357.69999999999993 329.99999999999994 C 357.8 330 339 343.3 301.9 343.4 z" stroke-linecap="round" /></g><g transform="matrix(1 0 0 1 -855.7 -735.2)" id="Graphic"  ><path style="stroke: none; stroke-width: 1; stroke-dasharray: none; stroke-linecap: butt; stroke-dashoffset: 0; stroke-linejoin: miter; stroke-miterlimit: 4; fill: rgb(0,0,0); fill-rule: nonzero; opacity: 1;"  transform=" translate(-191.5, -317)" d="M 276.1 324.1 C 276.1 324.1 258.40000000000003 288.3 235.8 299.6 C 213.20000000000002 310.90000000000003 202 314.5 179.4 297.40000000000003 C 156.8 280.3 132.7 264.20000000000005 132.7 264.20000000000005 L 122.99999999999999 306.80000000000007 L 140.7 325.9000000000001 L 113.29999999999998 326.7000000000001 L 106.89999999999998 344.7000000000001 C 106.89999999999998 344.7000000000001 131.09999999999997 359.8000000000001 160.09999999999997 357.2000000000001 C 189.09999999999997 354.6000000000001 190.69999999999996 351.6000000000001 203.59999999999997 366.0000000000001 C 216.49999999999997 380.4000000000001 238.89999999999998 348.60000000000014 263.09999999999997 357.2000000000001 L 276.1 324.1 z" stroke-linecap="round" /></g><g transform="matrix(1 0 0 1 -745.3 -654.2)" id="Graphic"  ><line style="stroke: rgb(251,169,45); stroke-width: 3; stroke-dasharray: none; stroke-linecap: butt; stroke-dashoffset: 0; stroke-linejoin: miter; stroke-miterlimit: 10; fill: none; fill-rule: nonzero; opacity: 1;"  x1="16.599999999999994" y1="-9.300000000000011" x2="-16.599999999999994" y2="9.300000000000011" /></g><g transform="matrix(1 0 0 1 -603.8 -354.04)" id="Graphic"  ><path style="stroke: rgb(0,0,0); stroke-width: 5; stroke-dasharray: none; stroke-linecap: butt; stroke-dashoffset: 0; stroke-linejoin: miter; stroke-miterlimit: 10; fill: rgb(255,198,10); fill-rule: nonzero; opacity: 1;"  transform=" translate(-443.4, -698.16)" d="M 378.2 619.1 C 378.2 619.1 467.79999999999995 653.5 545.1 619.1 L 545.1 771.6 C 545.1 771.6 464.8 788.4 341.70000000000005 763.9" stroke-linecap="round" /></g><g transform="matrix(1 0 0 1 -279.52 -562.38)" id="Graphic"  ><path style="stroke: rgb(0,0,0); stroke-width: 5; stroke-dasharray: none; stroke-linecap: butt; stroke-dashoffset: 0; stroke-linejoin: miter; stroke-miterlimit: 10; fill: rgb(255,255,255); fill-rule: nonzero; opacity: 1;"  transform=" translate(-767.68, -489.82)" d="M 770 450.2 L 737.4 501.4 C 732 509.9 734.5 521.1999999999999 743 526.6 C 751.5 532 762.8 529.5 768.2 521 L 800.8000000000001 469.8 L 770 450.2 z" stroke-linecap="round" /></g><g transform="matrix(1 0 0 1 -219.3 -658.8)" id="Graphic"  ><polygon style="stroke: rgb(0,0,0); stroke-width: 5; stroke-dasharray: none; stroke-linecap: butt; stroke-dashoffset: 0; stroke-linejoin: miter; stroke-miterlimit: 10; fill: rgb(255,255,255); fill-rule: nonzero; opacity: 1;"  points="-45.9,8.1 -12.1,-45 -2.7,-39 -10,-18.2 3.3,-35.2 30.7,-17.8 20.2,2.2 32.3,-16.7 45.9,-8.1 12,45 " /></g><g transform="matrix(1 0 0 1 -246.19 -615.01)" id="Graphic"  ><path style="stroke: rgb(0,0,0); stroke-width: 5; stroke-dasharray: none; stroke-linecap: butt; stroke-dashoffset: 0; stroke-linejoin: miter; stroke-miterlimit: 10; fill: rgb(255,255,255); fill-rule: nonzero; opacity: 1;"  transform=" translate(-801.01, -437.19)" d="M 839.9 438.4 L 781.9 401.5 L 764.5 428.9 C 760 435.9 762.1 445.2 769.1 449.7 L 801.7 470.5 C 808.7 475 818 472.9 822.5 465.9 L 839.9 438.4 z" stroke-linecap="round" /></g><g transform="matrix(1 0 0 1 -212.89 -669.8)" id="Graphic"  ><path style="stroke: none; stroke-width: 1; stroke-dasharray: none; stroke-linecap: butt; stroke-dashoffset: 0; stroke-linejoin: miter; stroke-miterlimit: 4; fill: rgb(0,0,0); fill-rule: nonzero; opacity: 1;"  transform=" translate(-834.31, -382.4)" d="M 848.1 395.6 L 858.5 375.70000000000005 L 831.1 358.30000000000007 L 817.7 375.30000000000007 L 825 354.50000000000006 L 815.6 348.50000000000006 L 796 379.20000000000005 C 796 379.20000000000005 792.2 396.70000000000005 799.6 393.80000000000007 C 807 390.9000000000001 823.2 390.1000000000001 822.5 397.80000000000007 C 821.9 405.50000000000006 832.8 416.30000000000007 842.6 413.6000000000001 C 846 412.7000000000001 850.1 414.1000000000001 853.9 416.30000000000007 L 873.6 385.4000000000001 L 860 376.7000000000001 L 848.1 395.6 z" stroke-linecap="round" /></g><g transform="matrix(1 0 0 1 -375.84 -431.31)" id="Graphic"  ><path style="stroke: rgb(0,0,0); stroke-width: 5; stroke-dasharray: none; stroke-linecap: butt; stroke-dashoffset: 0; stroke-linejoin: miter; stroke-miterlimit: 10; fill: rgb(255,255,255); fill-rule: nonzero; opacity: 1;"  transform=" translate(-671.36, -620.89)" d="M 760.7 494.8 C 763.3000000000001 490.90000000000003 768.5 489.8 772.4000000000001 492.40000000000003 C 776.3000000000001 495.00000000000006 777.4000000000001 500.20000000000005 774.8000000000001 504.1 L 772.2 507.5 C 774.9000000000001 504.4 779.6 503.7 783.2 506 C 787.1 508.6 788.2 513.8 785.6 517.7 L 783.2 520.7 C 786 517.9000000000001 790.4000000000001 517.4000000000001 793.8000000000001 519.6 C 797.7 522.2 798.8000000000001 527.4 796.2 531.3000000000001 L 755.2 584.9000000000001 C 755.2 584.9000000000001 691.6 720.3000000000001 545.1 757.6000000000001 L 545.1 641.8 C 545.1 641.8 647.7 626.8 697.7 543.6999999999999 L 711.7 509.79999999999995 C 711.9000000000001 505.19999999999993 714.1 500.99999999999994 717.6 498.09999999999997 L 720 496.09999999999997 C 725 491.99999999999994 732 491.29999999999995 737.8 494.29999999999995 L 739.8 495.4 L 747.0999999999999 486 C 747.0999999999999 486 752.6999999999999 482.5 756.5999999999999 485.2 C 760.4999999999999 487.9 762.1 490.4 760.7 494.8 L 750.4000000000001 508.40000000000003" stroke-linecap="round" /></g><g transform="matrix(1 0 0 1 -269.75 -524.6)" id="Graphic"  ><line style="stroke: rgb(0,0,0); stroke-width: 5; stroke-dasharray: none; stroke-linecap: butt; stroke-dashoffset: 0; stroke-linejoin: miter; stroke-miterlimit: 10; fill: rgb(255,255,255); fill-rule: nonzero; opacity: 1;"  x1="4.650000000000034" y1="-5.5" x2="-4.650000000000034" y2="5.5" /></g><g transform="matrix(1 0 0 1 -280 -537.95)" id="Graphic"  ><line style="stroke: rgb(0,0,0); stroke-width: 5; stroke-dasharray: none; stroke-linecap: butt; stroke-dashoffset: 0; stroke-linejoin: miter; stroke-miterlimit: 10; fill: rgb(255,255,255); fill-rule: nonzero; opacity: 1;"  x1="4.300000000000011" y1="-5.850000000000023" x2="-4.300000000000011" y2="5.850000000000023" /></g><g transform="matrix(1 0 0 1 -590.5 -503.85)" id="Graphic"  ><line style="stroke: rgb(0,0,0); stroke-width: 3; stroke-dasharray: none; stroke-linecap: butt; stroke-dashoffset: 0; stroke-linejoin: miter; stroke-miterlimit: 10; fill: none; fill-rule: nonzero; opacity: 1;"  x1="0" y1="-85.75" x2="0" y2="85.75" /></g><g transform="matrix(1 0 0 1 -590.5 -240.85)" id="Graphic"  ><line style="stroke: rgb(0,0,0); stroke-width: 3; stroke-dasharray: none; stroke-linecap: butt; stroke-dashoffset: 0; stroke-linejoin: miter; stroke-miterlimit: 10; fill: none; fill-rule: nonzero; opacity: 1;"  x1="0" y1="-34.35000000000002" x2="0" y2="34.35000000000002" /></g><g transform="matrix(1 0 0 1 -146.68 796.21)" id="Graphic"  ><path style="stroke: none; stroke-width: 1; stroke-dasharray: none; stroke-linecap: butt; stroke-dashoffset: 0; stroke-linejoin: miter; stroke-miterlimit: 4; fill: rgb(0,0,0); fill-rule: nonzero; opacity: 1;"  transform=" translate(-900.52, -1848.41)" d="M 734.1 1708.4 C 734.1 1708.4 677.3000000000001 1669.5 608.2 1708.4 C 555.8000000000001 1737.9 634.5 1894.1000000000001 675.4000000000001 1967.5 C 688.6000000000001 1991.1 713.5000000000001 2005.7 740.5000000000001 2005.7 L 1119 2005.7 C 1137.6 2005.7 1155.2 1997.6000000000001 1167.3 1983.5 C 1188.7 1958.5 1217.5 1916.1 1208.6 1876.5 C 1194.8999999999999 1815.1 1088.1999999999998 1736.9 1088.1999999999998 1736.9 L 734.1 1708.4 z" stroke-linecap="round" /></g><g transform="matrix(1 0 0 1 -125.22 279.15)" id="Graphic"  ><path style="stroke: rgb(0,0,0); stroke-width: 5; stroke-dasharray: none; stroke-linecap: butt; stroke-dashoffset: 0; stroke-linejoin: miter; stroke-miterlimit: 10; fill: rgb(255,255,255); fill-rule: nonzero; opacity: 1;"  transform=" translate(-921.98, -1331.35)" d="M 970.3 1324.9 L 946 1419.1000000000001 C 946 1419.1000000000001 933 1446.2 898.4 1436.7 C 863.8 1427.2 873.6999999999999 1400.4 873.6999999999999 1400.4 C 873.6999999999999 1400.2 877.9 1384 877.9999999999999 1383.9 L 882.2999999999998 1367 L 873.6999999999998 1357.6 C 864.3999999999999 1347.5 860.7999999999998 1333.3 864.2999999999998 1319.8999999999999 L 878.5999999999998 1264.3 L 878.5999999999998 1264.3 C 878.6999999999998 1263.8999999999999 878.7999999999998 1263.5 878.8999999999997 1263 C 886.0999999999998 1235 914.7999999999997 1218.2 942.7999999999997 1225.8 C 970.2999999999997 1233.3 986.3999999999997 1262 979.2999999999997 1289.6 L 977.2999999999997 1297.3999999999999 L 970.3 1324.9 z" stroke-linecap="round" /></g><g transform="matrix(1 0 0 1 -119.76 216.31)" id="Graphic"  ><path style="stroke: none; stroke-width: 1; stroke-dasharray: none; stroke-linecap: butt; stroke-dashoffset: 0; stroke-linejoin: miter; stroke-miterlimit: 4; fill: rgb(0,0,0); fill-rule: nonzero; opacity: 1;"  transform=" translate(-927.44, -1268.51)" d="M 888.8 1243.5 C 888.8 1243.5 874.4 1268.7 891.4 1276.1 C 908.5 1283.5 903.5 1291.1 898.9 1297.6 C 898.9 1297.6 914.1999999999999 1295.6 916.1 1302 C 918 1308.4 913.3000000000001 1319.7 902.2 1321.5 C 902.2 1321.5 888.7 1337 896.9000000000001 1346.8 C 905.0000000000001 1356.6 949.1000000000001 1373.3 962.4000000000001 1355.3999999999999 L 989.5000000000001 1300.9999999999998 C 992.2000000000002 1295.5999999999997 993.7000000000002 1289.6999999999998 993.8000000000001 1283.5999999999997 C 994.2 1266.1999999999996 992.8000000000001 1229.6999999999996 975.1 1210.9999999999998 C 951.3000000000001 1185.8999999999999 918.4 1180.3999999999999 923.2 1191.6999999999998 C 923.2 1191.6999999999998 892.6 1165.3999999999999 884.5 1176.3999999999999 C 876.3 1187.3 894.2 1203.8 894.2 1203.8 C 894.2 1203.8 868.4000000000001 1190.6 863 1202.3 C 857.6 1214 862.4 1231.5 888.8 1243.5 z" stroke-linecap="round" /></g><g transform="matrix(1 0 0 1 -169.98 435.65)" id="Graphic"  ><path style="stroke: none; stroke-width: 1; stroke-dasharray: none; stroke-linecap: butt; stroke-dashoffset: 0; stroke-linejoin: miter; stroke-miterlimit: 4; fill: rgb(52,94,171); fill-rule: nonzero; opacity: 1;"  transform=" translate(-877.22, -1487.85)" d="M 854.4 1398.4 L 1012.7 1398.4 C 1034.1000000000001 1398.4 1053.1000000000001 1412.2 1059.8 1432.5 L 1142.6 1685 C 1148.6 1703.2 1146.8999999999999 1723.1 1138 1740.1 L 1098.1 1816.3999999999999 L 734.0999999999999 1816.3999999999999 L 734.0999999999999 1549.1 L 608.3 1211 L 697.5999999999999 1159.3 L 797.8999999999999 1363.2 C 808.5 1384.7 830.4 1398.4 854.4 1398.4 z" stroke-linecap="round" /></g><g transform="matrix(1 0 0 1 31.5 606.5)" id="Graphic"  ><line style="stroke: rgb(0,0,0); stroke-width: 5; stroke-dasharray: none; stroke-linecap: butt; stroke-dashoffset: 0; stroke-linejoin: miter; stroke-miterlimit: 10; fill: rgb(255,255,255); fill-rule: nonzero; opacity: 1;"  x1="-19.399999999999977" y1="-157.79999999999995" x2="19.399999999999977" y2="157.79999999999995" /></g><g transform="matrix(1 0 0 1 -419.45 55.25)" id="Graphic"  ><path style="stroke: rgb(0,0,0); stroke-width: 3; stroke-dasharray: none; stroke-linecap: butt; stroke-dashoffset: 0; stroke-linejoin: miter; stroke-miterlimit: 10; fill: rgb(255,255,255); fill-rule: nonzero; opacity: 1;"  transform=" translate(-627.75, -1107.45)" d="M 628.9 1199.1 L 571.1 1092.3 C 569.2 1088.3999999999999 570.8000000000001 1083.6 574.7 1081.7 C 578.6 1079.8000000000002 583.4000000000001 1081.4 585.3000000000001 1085.3 L 582.5000000000001 1080.8 C 580.6000000000001 1076.8999999999999 582.2000000000002 1072.1 586.1000000000001 1070.2 C 590.0000000000001 1068.3 594.8000000000002 1069.9 596.7000000000002 1073.8 L 594.1000000000001 1069.3999999999999 C 592.2000000000002 1065.4999999999998 593.8000000000002 1060.6999999999998 597.7000000000002 1058.8 C 601.6000000000001 1056.9 606.4000000000002 1058.5 608.3000000000002 1062.3999999999999 L 593.0000000000002 1027.1999999999998 C 591.1000000000003 1023.2999999999998 592.7000000000003 1018.4999999999998 596.6000000000003 1016.5999999999998 C 600.5000000000002 1014.6999999999998 605.3000000000003 1016.2999999999998 607.2000000000003 1020.1999999999998 L 627.6000000000003 1065.4999999999998 L 629.6000000000003 1064.6999999999998 C 635.3000000000003 1062.6 641.7000000000003 1063.9999999999998 645.9000000000002 1068.3999999999999 L 647.9000000000002 1070.4999999999998 C 650.9000000000002 1073.5999999999997 652.4000000000002 1077.7999999999997 652.1000000000003 1082.0999999999997 L 685.2000000000003 1166.3999999999996 L 628.9 1199.1 z" stroke-linecap="round" /></g><g transform="matrix(1 0 0 1 -458.1 38.75)" id="Graphic"  ><line style="stroke: rgb(0,0,0); stroke-width: 3; stroke-dasharray: none; stroke-linecap: butt; stroke-dashoffset: 0; stroke-linejoin: miter; stroke-miterlimit: 10; fill: rgb(255,255,255); fill-rule: nonzero; opacity: 1;"  x1="-3.6999999999999886" y1="-5.649999999999977" x2="3.6999999999999886" y2="5.649999999999977" /></g><g transform="matrix(1 0 0 1 -447.05 27.55)" id="Graphic"  ><line style="stroke: rgb(0,0,0); stroke-width: 3; stroke-dasharray: none; stroke-linecap: butt; stroke-dashoffset: 0; stroke-linejoin: miter; stroke-miterlimit: 10; fill: rgb(255,255,255); fill-rule: nonzero; opacity: 1;"  x1="-3.3500000000000227" y1="-5.9500000000000455" x2="3.3500000000000227" y2="5.9500000000000455" /></g><g transform="matrix(1 0 0 1 -434.8 17.15)" id="Graphic"  ><line style="stroke: rgb(0,0,0); stroke-width: 3; stroke-dasharray: none; stroke-linecap: butt; stroke-dashoffset: 0; stroke-linejoin: miter; stroke-miterlimit: 10; fill: rgb(255,255,255); fill-rule: nonzero; opacity: 1;"  x1="-4" y1="-6.949999999999932" x2="4" y2="6.949999999999932" /></g></g></g></svg>